<?xml version="1.0" encoding="iso-8859-1"?>
<!-- Generator: Adobe Illustrator 19.0.0, SVG Export Plug-In . SVG Version: 6.00 Build 0)  -->
<svg version="1.1" id="Capa_1" xmlns="http://www.w3.org/2000/svg" xmlns:xlink="http://www.w3.org/1999/xlink" x="0px" y="0px"
	 viewBox="0 0 512 512" style="enable-background:new 0 0 512 512;" xml:space="preserve">
<g>
	<g>
		<path d="M373.332,0h-256c-17.673,0-32,14.327-32,32v106.667h21.333V32c0-5.891,4.776-10.667,10.667-10.667h256
			c5.891,0,10.667,4.776,10.667,10.667v106.667h21.333V32C405.332,14.327,391.005,0,373.332,0z"/>
	</g>
</g>
<g>
	<g>
		<path d="M383.998,373.333V480c0,5.891-4.776,10.667-10.667,10.667h-256c-5.891,0-10.667-4.776-10.667-10.667V373.333H85.332V480
			c0,17.673,14.327,32,32,32h256c17.673,0,32-14.327,32-32V373.333H383.998z"/>
	</g>
</g>
<g>
	<g>
		<rect x="127.998" y="85.333" width="234.667" height="21.333"/>
	</g>
</g>
<g>
	<g>
		<rect x="127.998" y="405.333" width="234.667" height="21.333"/>
	</g>
</g>
<g>
	<g>
		<rect x="159.998" y="42.667" width="128" height="21.333"/>
	</g>
</g>
<g>
	<g>
		<rect x="309.332" y="42.667" width="21.333" height="21.333"/>
	</g>
</g>
<g>
	<g>
		<rect x="234.665" y="448" width="21.333" height="21.333"/>
	</g>
</g>
<g>
	<g>
		<rect x="298.665" y="170.667" width="21.333" height="42.667"/>
	</g>
</g>
<g>
	<g>
		<rect x="191.998" y="170.667" width="21.333" height="42.667"/>
	</g>
</g>
<g>
	<g>
		<rect x="85.332" y="170.667" width="21.333" height="42.667"/>
	</g>
</g>
<g>
	<g>
		<rect x="405.332" y="170.667" width="21.333" height="42.667"/>
	</g>
</g>
<g>
	<g>
		<path d="M479.998,160h-448c-11.782,0-21.333,9.551-21.333,21.333v64c0,11.782,9.551,21.333,21.333,21.333h448
			c11.782,0,21.333-9.551,21.333-21.333v-64C501.332,169.551,491.78,160,479.998,160z M479.998,245.333h-448v-64h448V245.333z"/>
	</g>
</g>
<g>
	<g>
		<rect x="245.332" y="170.667" width="21.333" height="53.333"/>
	</g>
</g>
<g>
	<g>
		<rect x="138.665" y="170.667" width="21.333" height="53.333"/>
	</g>
</g>
<g>
	<g>
		<rect x="351.998" y="170.667" width="21.333" height="53.333"/>
	</g>
</g>
<g>
	<g>
		<rect x="85.332" y="298.667" width="21.333" height="42.667"/>
	</g>
</g>
<g>
	<g>
		<path d="M496.585,311.125l-32-21.333c-1.755-1.165-3.814-1.789-5.92-1.792H21.332c-5.891,0-10.667,4.776-10.667,10.667v42.667
			c0,5.891,4.776,10.667,10.667,10.667h437.333c2.106-0.003,4.165-0.627,5.92-1.792l32-21.333c1.171-0.781,2.176-1.786,2.957-2.957
			C502.81,321.016,501.486,314.394,496.585,311.125z M455.465,330.667H31.998v-21.333h423.467l16,10.667L455.465,330.667z"/>
	</g>
</g>
<g>
</g>
<g>
</g>
<g>
</g>
<g>
</g>
<g>
</g>
<g>
</g>
<g>
</g>
<g>
</g>
<g>
</g>
<g>
</g>
<g>
</g>
<g>
</g>
<g>
</g>
<g>
</g>
<g>
</g>
</svg>
