<?xml version="1.0" encoding="iso-8859-1"?>
<!-- Generator: Adobe Illustrator 19.0.0, SVG Export Plug-In . SVG Version: 6.00 Build 0)  -->
<svg version="1.1" id="Capa_1" xmlns="http://www.w3.org/2000/svg" xmlns:xlink="http://www.w3.org/1999/xlink" x="0px" y="0px"
	 viewBox="0 0 512 512" style="enable-background:new 0 0 512 512;" xml:space="preserve">
<g>
	<g>
		<path d="M458.667,0H53.333C23.893,0.035,0.035,23.893,0,53.333v309.333h21.333V53.333c0-17.673,14.327-32,32-32h405.333
			c17.673,0,32,14.327,32,32v405.333c0,17.673-14.327,32-32,32H245.333V512h213.333c29.441-0.035,53.298-23.893,53.333-53.333
			V53.333C511.965,23.893,488.107,0.035,458.667,0z"/>
	</g>
</g>
<g>
	<g>
		<rect x="42.667" y="85.333" width="426.667" height="21.333"/>
	</g>
</g>
<g>
	<g>
		<rect x="53.333" y="42.667" width="21.333" height="21.333"/>
	</g>
</g>
<g>
	<g>
		<rect x="96" y="42.667" width="21.333" height="21.333"/>
	</g>
</g>
<g>
	<g>
		<rect x="437.333" y="42.667" width="21.333" height="21.333"/>
	</g>
</g>
<g>
	<g>
		<path d="M170.347,264.075c-7.253-29.405-33.398-50.238-63.68-50.741c-30.282,0.503-56.427,21.337-63.68,50.741
			c-0.212,0.848-0.32,1.718-0.32,2.592v21.013c0,48.032,28.117,85.653,64,85.653c35.883,0,64-37.621,64-85.653v-21.013
			C170.667,265.793,170.559,264.922,170.347,264.075z M149.333,287.68c0,35.52-19.136,64.32-42.667,64.32
			C83.136,352,64,323.2,64,287.68v-19.509c5.283-19.352,22.614-32.961,42.667-33.504c20.049,0.541,37.38,14.146,42.667,33.493
			V287.68z"/>
	</g>
</g>
<g>
	<g>
		<path d="M160,373.333c-0.866,0.056-1.735,0.056-2.602,0c-11.064-0.719-19.45-10.27-18.732-21.333h-21.333
			c-0.024,0.808-0.024,1.617,0,2.425c0.67,22.895,19.772,40.911,42.667,40.242c17.673,0,32,14.327,32,32V512h21.333v-85.333
			C213.298,397.226,189.441,373.369,160,373.333z"/>
	</g>
</g>
<g>
	<g>
		<path d="M96,352H74.667c0.056,0.866,0.056,1.735,0,2.602c-0.718,11.064-10.27,19.45-21.333,18.732
			C23.893,373.369,0.035,397.226,0,426.667V512h21.333v-85.333c0-17.673,14.327-32,32-32c0.808,0.024,1.617,0.024,2.425,0
			C78.653,393.997,96.67,374.895,96,352z"/>
	</g>
</g>
<g>
	<g>
		<rect x="42.667" y="437.333" width="21.333" height="74.667"/>
	</g>
</g>
<g>
	<g>
		<rect x="149.333" y="437.333" width="21.333" height="74.667"/>
	</g>
</g>
<g>
	<g>
		<path d="M458.667,128H181.333c-5.891,0-10.667,4.776-10.667,10.667V192c0,5.891,4.776,10.667,10.667,10.667h277.333
			c5.891,0,10.667-4.776,10.667-10.667v-53.333C469.333,132.776,464.558,128,458.667,128z M448,181.333H192v-32h256V181.333z"/>
	</g>
</g>
<g>
	<g>
		<path d="M458.667,234.667h-256V256H448v32H202.667v21.333h256c5.891,0,10.667-4.776,10.667-10.667v-53.333
			C469.333,239.442,464.558,234.667,458.667,234.667z"/>
	</g>
</g>
<g>
	<g>
		<path d="M448,341.333h-64c-11.782,0-21.333,9.551-21.333,21.333V384c0,11.782,9.551,21.333,21.333,21.333h64
			c11.782,0,21.333-9.551,21.333-21.333v-21.333C469.333,350.885,459.782,341.333,448,341.333z M448,384h-64v-21.333h64V384z"/>
	</g>
</g>
<g>
	<g>
		<path d="M320,341.333h-64c-11.782,0-21.333,9.551-21.333,21.333V384c0,11.782,9.551,21.333,21.333,21.333h64
			c11.782,0,21.333-9.551,21.333-21.333v-21.333C341.333,350.885,331.782,341.333,320,341.333z M320,384h-64v-21.333h64V384z"/>
	</g>
</g>
<g>
	<g>
		<rect x="437.333" y="437.333" width="21.333" height="21.333"/>
	</g>
</g>
<g>
	<g>
		<rect x="394.667" y="437.333" width="21.333" height="21.333"/>
	</g>
</g>
<g>
	<g>
		<rect x="245.333" y="437.333" width="128" height="21.333"/>
	</g>
</g>
<g>
	<g>
		<rect x="42.667" y="128" width="96" height="21.333"/>
	</g>
</g>
<g>
	<g>
		<rect x="42.667" y="170.667" width="53.333" height="21.333"/>
	</g>
</g>
<g>
	<g>
		<rect x="117.333" y="170.667" width="21.333" height="21.333"/>
	</g>
</g>
<g>
</g>
<g>
</g>
<g>
</g>
<g>
</g>
<g>
</g>
<g>
</g>
<g>
</g>
<g>
</g>
<g>
</g>
<g>
</g>
<g>
</g>
<g>
</g>
<g>
</g>
<g>
</g>
<g>
</g>
</svg>
