<?xml version="1.0" encoding="iso-8859-1"?>
<!-- Generator: Adobe Illustrator 19.0.0, SVG Export Plug-In . SVG Version: 6.00 Build 0)  -->
<svg version="1.1" id="Capa_1" xmlns="http://www.w3.org/2000/svg" xmlns:xlink="http://www.w3.org/1999/xlink" x="0px" y="0px"
	 viewBox="0 0 512 512" style="enable-background:new 0 0 512 512;" xml:space="preserve">
<g>
	<g>
		<path d="M458.667,0H53.333C23.893,0.035,0.035,23.893,0,53.333v405.333C0.035,488.107,23.893,511.965,53.333,512h405.333
			c29.441-0.035,53.298-23.893,53.333-53.333V53.333C511.965,23.893,488.107,0.035,458.667,0z M490.667,458.667
			c0,17.673-14.327,32-32,32H53.333c-17.673,0-32-14.327-32-32V53.333c0-17.673,14.327-32,32-32h405.333c17.673,0,32,14.327,32,32
			V458.667z"/>
	</g>
</g>
<g>
	<g>
		<rect x="42.667" y="85.333" width="426.667" height="21.333"/>
	</g>
</g>
<g>
	<g>
		<rect x="53.333" y="42.667" width="21.333" height="21.333"/>
	</g>
</g>
<g>
	<g>
		<rect x="96" y="42.667" width="21.333" height="21.333"/>
	</g>
</g>
<g>
	<g>
		<rect x="437.333" y="42.667" width="21.333" height="21.333"/>
	</g>
</g>
<g>
	<g>
		<path d="M394.667,202.667H224v-32c0-11.782-9.551-21.333-21.333-21.333h-85.333c-11.782,0-21.333,9.551-21.333,21.333V416
			c0,11.782,9.551,21.333,21.333,21.333h277.333c11.782,0,21.333-9.551,21.333-21.333V224
			C416,212.218,406.449,202.667,394.667,202.667z M394.667,416H117.333V170.667h85.333v42.667c0,5.891,4.776,10.667,10.667,10.667
			h181.333V416z"/>
	</g>
</g>
<g>
	<g>
		<rect x="213.333" y="170.667" width="149.333" height="21.333"/>
	</g>
</g>
<g>
	<g>
		<rect x="149.333" y="202.667" width="64" height="21.333"/>
	</g>
</g>
<g>
	<g>
		<path d="M231.541,284.875l-15.083-15.083l-42.667,42.667c-4.164,4.165-4.164,10.917,0,15.083l42.667,42.667l15.083-15.083
			L196.416,320L231.541,284.875z"/>
	</g>
</g>
<g>
	<g>
		<path d="M338.208,312.459l-42.667-42.667l-15.083,15.083L315.584,320l-35.125,35.125l15.083,15.083l42.667-42.667
			C342.372,323.376,342.372,316.624,338.208,312.459z"/>
	</g>
</g>
<g>
</g>
<g>
</g>
<g>
</g>
<g>
</g>
<g>
</g>
<g>
</g>
<g>
</g>
<g>
</g>
<g>
</g>
<g>
</g>
<g>
</g>
<g>
</g>
<g>
</g>
<g>
</g>
<g>
</g>
</svg>
