<?xml version="1.0" encoding="iso-8859-1"?>
<!-- Generator: Adobe Illustrator 19.0.0, SVG Export Plug-In . SVG Version: 6.00 Build 0)  -->
<svg version="1.1" id="Capa_1" xmlns="http://www.w3.org/2000/svg" xmlns:xlink="http://www.w3.org/1999/xlink" x="0px" y="0px"
	 viewBox="0 0 512 512" style="enable-background:new 0 0 512 512;" xml:space="preserve">
<g>
	<g>
		<path d="M458.667,0H53.333C23.893,0.035,0.035,23.893,0,53.333v405.333C0.035,488.107,23.893,511.965,53.333,512h160v-21.333h-160
			c-17.673,0-32-14.327-32-32V53.333c0-17.673,14.327-32,32-32h405.333c17.673,0,32,14.327,32,32H512
			C511.965,23.893,488.107,0.035,458.667,0z"/>
	</g>
</g>
<g>
	<g>
		<rect x="42.667" y="85.333" width="170.667" height="21.333"/>
	</g>
</g>
<g>
	<g>
		<rect x="53.333" y="42.667" width="21.333" height="21.333"/>
	</g>
</g>
<g>
	<g>
		<rect x="96" y="42.667" width="21.333" height="21.333"/>
	</g>
</g>
<g>
	<g>
		<path d="M490.667,74.667H256c-11.782,0-21.333,9.551-21.333,21.333v394.667c0,11.782,9.551,21.333,21.333,21.333h234.667
			c11.782,0,21.333-9.551,21.333-21.333V96C512,84.218,502.449,74.667,490.667,74.667z M490.667,490.667H256V96h234.667V490.667z"/>
	</g>
</g>
<g>
	<g>
		<rect x="245.333" y="128" width="256" height="21.333"/>
	</g>
</g>
<g>
	<g>
		<path d="M202.667,128H53.333c-5.891,0-10.667,4.776-10.667,10.667v192c0,5.891,4.776,10.667,10.667,10.667h149.333
			c5.891,0,10.667-4.776,10.667-10.667v-192C213.333,132.776,208.558,128,202.667,128z M192,320H64V149.333h128V320z"/>
	</g>
</g>
<g>
	<g>
		<path d="M202.667,320H53.333c-5.891,0-10.667,4.776-10.667,10.667v42.667c0,5.891,4.776,10.667,10.667,10.667h149.333
			c5.891,0,10.667-4.776,10.667-10.667v-42.667C213.333,324.776,208.558,320,202.667,320z M192,362.667H64v-21.333h128V362.667z"/>
	</g>
</g>
<g>
	<g>
		<rect x="117.333" y="330.667" width="21.333" height="42.667"/>
	</g>
</g>
<g>
	<g>
		<rect x="42.667" y="405.333" width="21.333" height="21.333"/>
	</g>
</g>
<g>
	<g>
		<rect x="85.333" y="405.333" width="21.333" height="21.333"/>
	</g>
</g>
<g>
	<g>
		<rect x="128" y="405.333" width="85.333" height="21.333"/>
	</g>
</g>
<g>
	<g>
		<rect x="42.667" y="448" width="170.667" height="21.333"/>
	</g>
</g>
<g>
	<g>
		<path d="M96,170.667c-5.891,0-10.667,4.776-10.667,10.667v32h21.333V192H128v-21.333H96z"/>
	</g>
</g>
<g>
	<g>
		<path d="M405.333,181.333H298.667c-11.782,0-21.333,9.551-21.333,21.333V224c0,11.782,9.551,21.333,21.333,21.333h106.667
			c11.782,0,21.333-9.551,21.333-21.333v-21.333C426.667,190.885,417.115,181.333,405.333,181.333z M405.333,224H298.667v-21.333
			h106.667V224z"/>
	</g>
</g>
<g>
	<g>
		<rect x="277.333" y="266.667" width="21.333" height="21.333"/>
	</g>
</g>
<g>
	<g>
		<rect x="437.333" y="309.333" width="21.333" height="21.333"/>
	</g>
</g>
<g>
	<g>
		<rect x="320" y="266.667" width="21.333" height="21.333"/>
	</g>
</g>
<g>
	<g>
		<rect x="362.667" y="352" width="21.333" height="21.333"/>
	</g>
</g>
<g>
	<g>
		<rect x="405.333" y="352" width="64" height="21.333"/>
	</g>
</g>
<g>
	<g>
		<rect x="362.667" y="266.667" width="106.667" height="21.333"/>
	</g>
</g>
<g>
	<g>
		<rect x="277.333" y="309.333" width="138.667" height="21.333"/>
	</g>
</g>
<g>
	<g>
		<rect x="298.667" y="394.667" width="21.333" height="21.333"/>
	</g>
</g>
<g>
	<g>
		<rect x="416" y="437.333" width="42.667" height="21.333"/>
	</g>
</g>
<g>
	<g>
		<rect x="277.333" y="437.333" width="117.333" height="21.333"/>
	</g>
</g>
<g>
	<g>
		<rect x="341.333" y="394.667" width="128" height="21.333"/>
	</g>
</g>
<g>
	<g>
		<rect x="277.333" y="352" width="64" height="21.333"/>
	</g>
</g>
<g>
</g>
<g>
</g>
<g>
</g>
<g>
</g>
<g>
</g>
<g>
</g>
<g>
</g>
<g>
</g>
<g>
</g>
<g>
</g>
<g>
</g>
<g>
</g>
<g>
</g>
<g>
</g>
<g>
</g>
</svg>
