<?xml version="1.0" encoding="iso-8859-1"?>
<!-- Generator: Adobe Illustrator 19.0.0, SVG Export Plug-In . SVG Version: 6.00 Build 0)  -->
<svg version="1.1" id="Capa_1" xmlns="http://www.w3.org/2000/svg" xmlns:xlink="http://www.w3.org/1999/xlink" x="0px" y="0px"
	 viewBox="0 0 512.014 512.014" style="enable-background:new 0 0 512.014 512.014;" xml:space="preserve">
<g>
	<g>
		<rect x="42.673" y="277.347" width="426.667" height="21.333"/>
	</g>
</g>
<g>
	<g>
		<path d="M341.255,457.358l-10.667-85.333c-0.667-5.337-5.203-9.342-10.581-9.344h-128c-5.378,0.002-9.914,4.007-10.581,9.344
			l-10.667,85.333c-0.055,0.438-0.082,0.879-0.082,1.32c-0.002,5.891,4.773,10.668,10.664,10.67h149.333
			c0.441,0,0.882-0.028,1.32-0.082C337.839,468.534,341.985,463.203,341.255,457.358z M193.425,448.014l8-64h109.163l8,64H193.425z"
			/>
	</g>
</g>
<g>
	<g>
		<path d="M362.673,448.014H149.34c-5.891,0-10.667,4.776-10.667,10.667v32c0,11.782,9.551,21.333,21.333,21.333h192
			c11.782,0,21.333-9.551,21.333-21.333v-32C373.34,452.789,368.565,448.014,362.673,448.014z M352.007,490.68h-192v-21.333h192
			V490.68z"/>
	</g>
</g>
<g>
	<g>
		<path d="M480.007,0.014v21.333c5.891,0,10.667,4.776,10.667,10.667v320c0,5.891-4.776,10.667-10.667,10.667h-448
			c-5.891,0-10.667-4.776-10.667-10.667v-320c0-5.891,4.776-10.667,10.667-10.667V0.014c-17.673,0-32,14.327-32,32v320
			c0,17.673,14.327,32,32,32h448c17.673,0,32-14.327,32-32v-320C512.007,14.34,497.68,0.014,480.007,0.014z"/>
	</g>
</g>
<g>
	<g>
		<rect x="117.34" y="490.68" width="277.333" height="21.333"/>
	</g>
</g>
<g>
	<g>
		<path d="M426.673,0.014H85.34v21.333h341.333c0.634-0.062,1.273-0.062,1.907,0c5.365,0.527,9.286,5.302,8.76,10.667V170.68h21.333
			V32.014c0.018-0.606,0.018-1.213,0-1.819C458.171,13.024,443.844-0.489,426.673,0.014z"/>
	</g>
</g>
<g>
	<g>
		<path d="M83.522,0.014c-17.171,0.502-30.684,14.829-30.181,32V170.68h21.333V32.142c-0.071-0.657-0.075-1.32-0.012-1.978
			c0.514-5.383,5.295-9.331,10.678-8.817V0.014C84.734-0.004,84.128-0.004,83.522,0.014z"/>
	</g>
</g>
<g>
	<g>
		<rect x="64.007" y="53.347" width="384" height="21.333"/>
	</g>
</g>
<g>
	<g>
		<rect x="53.34" y="234.68" width="21.333" height="21.333"/>
	</g>
</g>
<g>
	<g>
		<rect x="437.34" y="234.68" width="21.333" height="21.333"/>
	</g>
</g>
<g>
	<g>
		<rect x="437.34" y="192.014" width="21.333" height="21.333"/>
	</g>
</g>
<g>
	<g>
		<rect x="53.34" y="192.014" width="21.333" height="21.333"/>
	</g>
</g>
<g>
	<g>
		<path d="M192.007,224.014V202.68h-21.333v21.333c0.062,0.634,0.062,1.273,0,1.907c-0.527,5.365-5.302,9.286-10.667,8.76h-21.333
			c-0.634,0.062-1.273,0.062-1.907,0c-5.365-0.527-9.286-5.302-8.76-10.667V138.68c-0.062-0.634-0.062-1.273,0-1.907
			c0.526-5.365,5.302-9.286,10.667-8.76h21.333c0.634-0.062,1.273-0.062,1.907,0c5.365,0.526,9.286,5.302,8.76,10.667v21.333h21.333
			V138.68c0.018-0.606,0.018-1.213,0-1.819c-0.502-17.171-14.829-30.684-32-30.181h-21.333c-0.606-0.018-1.213-0.018-1.819,0
			c-17.171,0.502-30.684,14.829-30.181,32v85.333c-0.018,0.606-0.018,1.213,0,1.819c0.502,17.171,14.829,30.684,32,30.181h21.333
			c0.606,0.018,1.213,0.018,1.819,0C178.996,255.511,192.509,241.184,192.007,224.014z"/>
	</g>
</g>
<g>
	<g>
		<path d="M266.673,106.68H245.34c-0.467-0.01-0.935-0.01-1.402,0c-17.286,0.387-30.985,14.714-30.598,32v21.333
			c-0.01,0.467-0.01,0.935,0,1.402c0.387,17.286,14.714,30.985,32,30.598h10.667V170.68H245.34c-0.533,0.043-1.068,0.043-1.601,0
			c-5.449-0.442-9.508-5.218-9.066-10.667V138.68c-0.043-0.533-0.043-1.068,0-1.601c0.442-5.449,5.218-9.508,10.667-9.066h21.333
			c0.194,0.005,0.388,0.015,0.581,0.03c6.043,0.473,10.559,5.756,10.086,11.799v20.171h21.333v-20.171
			c0.006-0.229,0.011-0.457,0.012-0.686C298.814,121.349,284.482,106.808,266.673,106.68z"/>
	</g>
</g>
<g>
	<g>
		<path d="M266.673,170.68h-10.667v21.333h10.667c0.533-0.043,1.068-0.043,1.601,0c5.449,0.442,9.508,5.218,9.066,10.667v21.333
			c0.043,0.533,0.043,1.068,0,1.601c-0.442,5.449-5.218,9.508-10.667,9.066H245.34c-0.194-0.005-0.388-0.015-0.581-0.03
			c-6.043-0.473-10.559-5.756-10.086-11.799V202.68H213.34v20.171c-0.006,0.229-0.011,0.457-0.012,0.686
			c-0.128,17.808,14.204,32.348,32.012,32.477h21.333c0.467,0.01,0.935,0.01,1.402,0c17.286-0.387,30.985-14.714,30.598-32V202.68
			c0.01-0.467,0.01-0.935,0-1.402C298.286,183.992,283.959,170.293,266.673,170.68z"/>
	</g>
</g>
<g>
	<g>
		<path d="M373.34,106.68h-21.333c-0.467-0.01-0.935-0.01-1.402,0c-17.286,0.387-30.985,14.714-30.598,32v21.333
			c-0.01,0.467-0.01,0.935,0,1.402c0.387,17.286,14.714,30.985,32,30.598h10.667V170.68h-10.667c-0.533,0.043-1.068,0.043-1.601,0
			c-5.449-0.442-9.508-5.218-9.066-10.667V138.68c-0.043-0.533-0.043-1.068,0-1.601c0.442-5.449,5.218-9.508,10.667-9.066h21.333
			c0.194,0.005,0.388,0.015,0.581,0.03c6.043,0.473,10.559,5.756,10.086,11.799v20.171h21.333v-20.171
			c0.006-0.229,0.011-0.457,0.012-0.686C405.481,121.349,391.148,106.808,373.34,106.68z"/>
	</g>
</g>
<g>
	<g>
		<path d="M373.34,170.68h-10.667v21.333h10.667c0.533-0.043,1.068-0.043,1.601,0c5.449,0.442,9.508,5.218,9.066,10.667v21.333
			c0.043,0.533,0.043,1.068,0,1.601c-0.442,5.449-5.218,9.508-10.667,9.066h-21.333c-0.194-0.005-0.388-0.015-0.581-0.03
			c-6.043-0.473-10.559-5.756-10.086-11.799V202.68h-21.333v20.171c-0.007,0.229-0.011,0.457-0.012,0.686
			c-0.128,17.808,14.204,32.348,32.012,32.477h21.333c0.467,0.01,0.935,0.01,1.402,0c17.286-0.387,30.985-14.714,30.598-32V202.68
			c0.01-0.467,0.01-0.935,0-1.402C404.953,183.992,390.626,170.293,373.34,170.68z"/>
	</g>
</g>
<g>
</g>
<g>
</g>
<g>
</g>
<g>
</g>
<g>
</g>
<g>
</g>
<g>
</g>
<g>
</g>
<g>
</g>
<g>
</g>
<g>
</g>
<g>
</g>
<g>
</g>
<g>
</g>
<g>
</g>
</svg>
