<?xml version="1.0" encoding="iso-8859-1"?>
<!-- Generator: Adobe Illustrator 19.0.0, SVG Export Plug-In . SVG Version: 6.00 Build 0)  -->
<svg version="1.1" id="Capa_1" xmlns="http://www.w3.org/2000/svg" xmlns:xlink="http://www.w3.org/1999/xlink" x="0px" y="0px"
	 viewBox="0 0 512 512" style="enable-background:new 0 0 512 512;" xml:space="preserve">
<g>
	<g>
		<path d="M256,128c-94.21,0.112-170.555,76.456-170.667,170.667h21.333c0.088-82.438,66.895-149.245,149.333-149.333h117.333V128
			H256z"/>
	</g>
</g>
<g>
	<g>
		<path d="M405.333,298.667C405.245,381.105,338.438,447.912,256,448H138.667v21.333H256
			c94.21-0.112,170.555-76.456,170.667-170.667H405.333z"/>
	</g>
</g>
<g>
	<g>
		<path d="M373.333,266.667h-26.891c-1.152-3.179-2.439-6.286-3.861-9.323l19.019-19.019c4.164-4.165,4.164-10.917,0-15.083
			l-30.176-30.176c-4.165-4.164-10.917-4.164-15.083,0l-19.029,19.029c-3.036-1.445-6.144-2.733-9.312-3.861v-26.901
			c0-5.891-4.776-10.667-10.667-10.667h-42.667c-5.891,0-10.667,4.776-10.667,10.667v26.901c-3.167,1.124-6.276,2.41-9.312,3.851
			l-19.029-19.019c-4.165-4.164-10.917-4.164-15.083,0L150.4,223.243c-4.164,4.165-4.164,10.917,0,15.083l19.029,19.019
			c-1.444,3.044-2.731,6.151-3.861,9.323h-26.901c-5.891,0-10.667,4.776-10.667,10.667V320c0,5.891,4.776,10.667,10.667,10.667
			h26.901c1.12,3.169,2.405,6.277,3.851,9.312L150.4,359.008c-4.164,4.165-4.164,10.917,0,15.083l30.176,30.176
			c4.165,4.164,10.917,4.164,15.083,0l19.029-19.029c3.034,1.449,6.143,2.738,9.312,3.861V416c0,5.891,4.776,10.667,10.667,10.667
			h42.667c5.891,0,10.667-4.776,10.667-10.667v-26.891c3.169-1.123,6.278-2.412,9.312-3.861l19.029,19.019
			c4.165,4.164,10.917,4.164,15.083,0l30.176-30.176c4.164-4.165,4.164-10.917,0-15.083l-19.029-19.029
			c1.449-3.034,2.738-6.143,3.861-9.312h26.901c5.891,0,10.667-4.776,10.667-10.667v-42.667
			C384,271.442,379.224,266.667,373.333,266.667z M362.667,309.323h-24.117c-4.859,0.006-9.1,3.295-10.315,8
			c-1.748,6.74-4.43,13.203-7.968,19.2c-2.474,4.194-1.794,9.531,1.653,12.971l17.067,17.067l-15.083,15.083l-17.067-17.067
			c-3.439-3.447-8.777-4.127-12.971-1.653c-5.997,3.538-12.46,6.22-19.2,7.968c-4.705,1.215-7.994,5.456-8,10.315v24.128h-21.333
			l0.011-24.107c-0.006-4.859-3.295-9.1-8-10.315c-6.74-1.748-13.203-4.43-19.2-7.968c-4.194-2.474-9.531-1.794-12.971,1.653
			l-17.067,17.067l-15.083-15.083l17.067-17.067c3.447-3.439,4.128-8.777,1.653-12.971c-3.538-5.997-6.22-12.46-7.968-19.2
			c-1.215-4.705-5.456-7.994-10.315-8h-24.128v-21.333h24.117c4.859-0.006,9.1-3.295,10.315-8c1.748-6.74,4.43-13.203,7.968-19.2
			c2.474-4.194,1.794-9.531-1.653-12.971l-17.067-17.067l15.083-15.083l17.067,17.067c3.442,3.444,8.779,4.12,12.971,1.643
			c5.998-3.531,12.461-6.206,19.2-7.947c4.709-1.216,7.999-5.462,8-10.325V192h21.323v24.117c0.001,4.863,3.291,9.11,8,10.325
			c6.739,1.741,13.202,4.416,19.2,7.947c4.192,2.477,9.529,1.801,12.971-1.643l17.067-17.067l15.083,15.083l-17.067,17.067
			c-3.447,3.439-4.128,8.777-1.653,12.971c3.538,5.997,6.22,12.46,7.968,19.2c1.215,4.705,5.456,7.994,10.315,8h24.128V309.323z"/>
	</g>
</g>
<g>
	<g>
		<path d="M256,256c-23.564,0-42.667,19.103-42.667,42.667s19.103,42.667,42.667,42.667s42.667-19.102,42.667-42.667
			S279.564,256,256,256z M256,320c-11.782,0-21.333-9.551-21.333-21.333c0-11.782,9.551-21.333,21.333-21.333
			s21.333,9.551,21.333,21.333C277.333,310.449,267.782,320,256,320z"/>
	</g>
</g>
<g>
	<g>
		<rect x="96" y="448" width="21.333" height="21.333"/>
	</g>
</g>
<g>
	<g>
		<rect x="53.333" y="448" width="21.333" height="21.333"/>
	</g>
</g>
<g>
	<g>
		<rect x="394.667" y="128" width="21.333" height="21.333"/>
	</g>
</g>
<g>
	<g>
		<rect x="437.333" y="128" width="21.333" height="21.333"/>
	</g>
</g>
<g>
	<g>
		<path d="M458.667,0H53.333C23.893,0.035,0.035,23.893,0,53.333v405.333C0.035,488.107,23.893,511.965,53.333,512h405.333
			c29.441-0.035,53.298-23.893,53.333-53.333V53.333C511.965,23.893,488.107,0.035,458.667,0z M490.667,458.667
			c0,17.673-14.327,32-32,32H53.333c-17.673,0-32-14.327-32-32V53.333c0-17.673,14.327-32,32-32h405.333c17.673,0,32,14.327,32,32
			V458.667z"/>
	</g>
</g>
<g>
	<g>
		<rect x="42.667" y="85.333" width="426.667" height="21.333"/>
	</g>
</g>
<g>
	<g>
		<rect x="53.333" y="42.667" width="21.333" height="21.333"/>
	</g>
</g>
<g>
	<g>
		<rect x="96" y="42.667" width="21.333" height="21.333"/>
	</g>
</g>
<g>
	<g>
		<rect x="437.333" y="42.667" width="21.333" height="21.333"/>
	</g>
</g>
<g>
</g>
<g>
</g>
<g>
</g>
<g>
</g>
<g>
</g>
<g>
</g>
<g>
</g>
<g>
</g>
<g>
</g>
<g>
</g>
<g>
</g>
<g>
</g>
<g>
</g>
<g>
</g>
<g>
</g>
</svg>
