<?xml version="1.0" encoding="iso-8859-1"?>
<!-- Generator: Adobe Illustrator 19.0.0, SVG Export Plug-In . SVG Version: 6.00 Build 0)  -->
<svg version="1.1" id="Capa_1" xmlns="http://www.w3.org/2000/svg" xmlns:xlink="http://www.w3.org/1999/xlink" x="0px" y="0px"
	 viewBox="0 0 512.014 512.014" style="enable-background:new 0 0 512.014 512.014;" xml:space="preserve">
<g>
	<g>
		<rect x="42.673" y="277.347" width="426.667" height="21.333"/>
	</g>
</g>
<g>
	<g>
		<path d="M341.255,457.358l-10.667-85.333c-0.667-5.337-5.203-9.342-10.581-9.344h-128c-5.378,0.002-9.914,4.007-10.581,9.344
			l-10.667,85.333c-0.055,0.438-0.082,0.879-0.082,1.32c-0.002,5.891,4.773,10.668,10.664,10.67h149.333
			c0.441,0,0.882-0.028,1.32-0.082C337.839,468.534,341.985,463.203,341.255,457.358z M193.425,448.014l8-64h109.163l8,64H193.425z"
			/>
	</g>
</g>
<g>
	<g>
		<path d="M362.673,448.014H149.34c-5.891,0-10.667,4.776-10.667,10.667v32c0,11.782,9.551,21.333,21.333,21.333h192
			c11.782,0,21.333-9.551,21.333-21.333v-32C373.34,452.789,368.565,448.014,362.673,448.014z M352.007,490.68h-192v-21.333h192
			V490.68z"/>
	</g>
</g>
<g>
	<g>
		<path d="M480.007,0.014v21.333c5.891,0,10.667,4.776,10.667,10.667v320c0,5.891-4.776,10.667-10.667,10.667h-448
			c-5.891,0-10.667-4.776-10.667-10.667v-320c0-5.891,4.776-10.667,10.667-10.667V0.014c-17.673,0-32,14.327-32,32v320
			c0,17.673,14.327,32,32,32h448c17.673,0,32-14.327,32-32v-320C512.007,14.34,497.68,0.014,480.007,0.014z"/>
	</g>
</g>
<g>
	<g>
		<rect x="117.34" y="490.68" width="277.333" height="21.333"/>
	</g>
</g>
<g>
	<g>
		<path d="M426.673,0.014H85.34v21.333h341.333c0.634-0.062,1.273-0.062,1.907,0c5.365,0.527,9.286,5.302,8.76,10.667V170.68h21.333
			V32.014c0.018-0.606,0.018-1.213,0-1.819C458.171,13.024,443.844-0.489,426.673,0.014z"/>
	</g>
</g>
<g>
	<g>
		<path d="M83.522,0.014c-17.171,0.502-30.684,14.829-30.181,32V170.68h21.333V32.142c-0.069-0.649-0.073-1.304-0.012-1.954
			c0.507-5.39,5.288-9.348,10.678-8.841V0.014C84.734-0.004,84.128-0.004,83.522,0.014z"/>
	</g>
</g>
<g>
	<g>
		<rect x="64.007" y="53.347" width="384" height="21.333"/>
	</g>
</g>
<g>
	<g>
		<path d="M330.673,170.68v-32c0.018-0.606,0.018-1.213,0-1.819c-0.502-17.171-14.829-30.684-32-30.181H277.34
			c-0.606-0.018-1.213-0.018-1.819,0c-17.171,0.502-30.684,14.829-30.181,32v117.333h21.333V202.68h32
			c0.606,0.018,1.213,0.018,1.819,0C317.663,202.178,331.176,187.851,330.673,170.68z M309.352,172.506
			c-0.507,5.39-5.288,9.348-10.678,8.841h-32V138.68c-0.062-0.634-0.062-1.273,0-1.907c0.526-5.365,5.302-9.286,10.667-8.76h21.333
			c0.634-0.062,1.273-0.062,1.907,0c5.365,0.526,9.286,5.302,8.76,10.667v31.872C309.409,171.202,309.413,171.856,309.352,172.506z"
			/>
	</g>
</g>
<g>
	<g>
		<rect x="352.007" y="106.68" width="21.333" height="149.333"/>
	</g>
</g>
<g>
	<g>
		<path d="M192.007,106.68h-21.333c-0.606-0.018-1.213-0.018-1.819,0c-17.171,0.502-30.684,14.829-30.181,32v117.333h21.333V138.68
			c-0.062-0.634-0.062-1.273,0-1.907c0.526-5.365,5.302-9.286,10.667-8.76h21.333c0.634-0.062,1.273-0.062,1.907,0
			c5.365,0.526,9.286,5.302,8.76,10.667v117.333h21.333V138.68c0.018-0.606,0.018-1.213,0-1.819
			C223.505,119.691,209.178,106.178,192.007,106.68z"/>
	</g>
</g>
<g>
	<g>
		<rect x="149.34" y="170.68" width="64" height="21.333"/>
	</g>
</g>
<g>
	<g>
		<rect x="53.34" y="234.68" width="21.333" height="21.333"/>
	</g>
</g>
<g>
	<g>
		<rect x="437.34" y="234.68" width="21.333" height="21.333"/>
	</g>
</g>
<g>
	<g>
		<rect x="437.34" y="192.014" width="21.333" height="21.333"/>
	</g>
</g>
<g>
	<g>
		<rect x="53.34" y="192.014" width="21.333" height="21.333"/>
	</g>
</g>
<g>
</g>
<g>
</g>
<g>
</g>
<g>
</g>
<g>
</g>
<g>
</g>
<g>
</g>
<g>
</g>
<g>
</g>
<g>
</g>
<g>
</g>
<g>
</g>
<g>
</g>
<g>
</g>
<g>
</g>
</svg>
