<?xml version="1.0" encoding="iso-8859-1"?>
<!-- Generator: Adobe Illustrator 19.0.0, SVG Export Plug-In . SVG Version: 6.00 Build 0)  -->
<svg version="1.1" id="Capa_1" xmlns="http://www.w3.org/2000/svg" xmlns:xlink="http://www.w3.org/1999/xlink" x="0px" y="0px"
	 viewBox="0 0 512 512" style="enable-background:new 0 0 512 512;" xml:space="preserve">
<g>
	<g>
		<path d="M373.333,0h-320c-17.673,0-32,14.327-32,32v448c0,17.673,14.327,32,32,32h320c17.673,0,32-14.327,32-32V32
			C405.333,14.327,391.006,0,373.333,0z M384,480c0,5.891-4.776,10.667-10.667,10.667h-320c-5.891,0-10.667-4.776-10.667-10.667V32
			c0-5.891,4.776-10.667,10.667-10.667h320C379.224,21.333,384,26.109,384,32V480z"/>
	</g>
</g>
<g>
	<g>
		<rect x="64" y="85.333" width="298.667" height="21.333"/>
	</g>
</g>
<g>
	<g>
		<rect x="64" y="405.333" width="298.667" height="21.333"/>
	</g>
</g>
<g>
	<g>
		<rect x="128" y="42.667" width="128" height="21.333"/>
	</g>
</g>
<g>
	<g>
		<rect x="277.333" y="42.667" width="21.333" height="21.333"/>
	</g>
</g>
<g>
	<g>
		<rect x="202.667" y="448" width="21.333" height="21.333"/>
	</g>
</g>
<g>
	<g>
		<path d="M128,128H85.333c-5.891,0-10.667,4.776-10.667,10.667v42.667c0,5.891,4.776,10.667,10.667,10.667H128
			c5.891,0,10.667-4.776,10.667-10.667v-42.667C138.667,132.776,133.891,128,128,128z M117.333,170.667H96v-21.333h21.333V170.667z"
			/>
	</g>
</g>
<g>
	<g>
		<path d="M234.667,128H192c-5.891,0-10.667,4.776-10.667,10.667v42.667c0,5.891,4.776,10.667,10.667,10.667h42.667
			c5.891,0,10.667-4.776,10.667-10.667v-42.667C245.333,132.776,240.558,128,234.667,128z M224,170.667h-21.333v-21.333H224V170.667
			z"/>
	</g>
</g>
<g>
	<g>
		<path d="M341.333,128h-42.667c-5.891,0-10.667,4.776-10.667,10.667v42.667c0,5.891,4.776,10.667,10.667,10.667h42.667
			c5.891,0,10.667-4.776,10.667-10.667v-42.667C352,132.776,347.224,128,341.333,128z M330.667,170.667h-21.333v-21.333h21.333
			V170.667z"/>
	</g>
</g>
<g>
	<g>
		<path d="M128,224H85.333c-5.891,0-10.667,4.776-10.667,10.667v42.667c0,5.891,4.776,10.667,10.667,10.667H128
			c5.891,0,10.667-4.776,10.667-10.667v-42.667C138.667,228.776,133.891,224,128,224z M117.333,266.667H96v-21.333h21.333V266.667z"
			/>
	</g>
</g>
<g>
	<g>
		<path d="M234.667,224H192c-5.891,0-10.667,4.776-10.667,10.667v42.667c0,5.891,4.776,10.667,10.667,10.667h42.667
			c5.891,0,10.667-4.776,10.667-10.667v-42.667C245.333,228.776,240.558,224,234.667,224z M224,266.667h-21.333v-21.333H224V266.667
			z"/>
	</g>
</g>
<g>
	<g>
		<path d="M341.333,224h-42.667c-5.891,0-10.667,4.776-10.667,10.667v42.667c0,5.891,4.776,10.667,10.667,10.667h42.667
			c5.891,0,10.667-4.776,10.667-10.667v-42.667C352,228.776,347.224,224,341.333,224z M330.667,266.667h-21.333v-21.333h21.333
			V266.667z"/>
	</g>
</g>
<g>
	<g>
		<path d="M128,320H85.333c-5.891,0-10.667,4.776-10.667,10.667v42.667c0,5.891,4.776,10.667,10.667,10.667H128
			c5.891,0,10.667-4.776,10.667-10.667v-42.667C138.667,324.776,133.891,320,128,320z M117.333,362.667H96v-21.333h21.333V362.667z"
			/>
	</g>
</g>
<g>
	<g>
		<path d="M234.667,320H192c-5.891,0-10.667,4.776-10.667,10.667v42.667c0,5.891,4.776,10.667,10.667,10.667h42.667
			c5.891,0,10.667-4.776,10.667-10.667v-42.667C245.333,324.776,240.558,320,234.667,320z M224,362.667h-21.333v-21.333H224V362.667
			z"/>
	</g>
</g>
<g>
	<g>
		<path d="M341.333,320h-42.667c-5.891,0-10.667,4.776-10.667,10.667v42.667c0,5.891,4.776,10.667,10.667,10.667h42.667
			c5.891,0,10.667-4.776,10.667-10.667v-42.667C352,324.776,347.224,320,341.333,320z M330.667,362.667h-21.333v-21.333h21.333
			V362.667z"/>
	</g>
</g>
<g>
	<g>
		<rect x="437.333" y="405.333" width="42.667" height="21.333"/>
	</g>
</g>
<g>
	<g>
		<path d="M488.875,47.413l-21.333-32c-0.635-0.849-1.388-1.602-2.237-2.236c-4.901-3.666-11.847-2.665-15.513,2.236l-21.333,32
			c-1.165,1.755-1.789,3.814-1.792,5.92v437.333c0,5.891,4.776,10.667,10.667,10.667H480c5.891,0,10.667-4.776,10.667-10.667V53.333
			C490.663,51.227,490.04,49.168,488.875,47.413z M469.333,480H448V56.533l10.667-16l10.667,16V480z"/>
	</g>
</g>
<g>
</g>
<g>
</g>
<g>
</g>
<g>
</g>
<g>
</g>
<g>
</g>
<g>
</g>
<g>
</g>
<g>
</g>
<g>
</g>
<g>
</g>
<g>
</g>
<g>
</g>
<g>
</g>
<g>
</g>
</svg>
