<?xml version="1.0" encoding="iso-8859-1"?>
<!-- Generator: Adobe Illustrator 19.0.0, SVG Export Plug-In . SVG Version: 6.00 Build 0)  -->
<svg version="1.1" id="Capa_1" xmlns="http://www.w3.org/2000/svg" xmlns:xlink="http://www.w3.org/1999/xlink" x="0px" y="0px"
	 viewBox="0 0 512 512" style="enable-background:new 0 0 512 512;" xml:space="preserve">
<g>
	<g>
		<path d="M458.667,0h-256v21.333h256c17.673,0,32,14.327,32,32v326.251L379.584,490.667H213.333V512H384
			c2.829-0.001,5.541-1.125,7.541-3.125l117.333-117.333c2.001-2,3.125-4.713,3.125-7.541V53.333
			C511.965,23.893,488.107,0.035,458.667,0z"/>
	</g>
</g>
<g>
	<g>
		<path d="M501.333,373.333h-74.667c-29.441,0.035-53.298,23.893-53.333,53.333v74.667c0,5.891,4.776,10.667,10.667,10.667
			c2.829-0.001,5.541-1.125,7.541-3.125l117.333-117.333c1.999-2,3.122-4.711,3.123-7.539
			C511.999,378.111,507.224,373.335,501.333,373.333z M394.667,475.584v-48.917c0-17.673,14.327-32,32-32h48.917L394.667,475.584z"
			/>
	</g>
</g>
<g>
	<g>
		<rect x="10.667" y="192" width="42.667" height="21.333"/>
	</g>
</g>
<g>
	<g>
		<rect x="10.667" y="298.667" width="42.667" height="21.333"/>
	</g>
</g>
<g>
	<g>
		<rect x="10.667" y="405.333" width="42.667" height="21.333"/>
	</g>
</g>
<g>
	<g>
		<rect x="10.667" y="85.333" width="42.667" height="21.333"/>
	</g>
</g>
<g>
	<g>
		<path d="M85.333,10.667h-64C9.551,10.667,0,20.218,0,32v448c0,11.782,9.551,21.333,21.333,21.333h64
			c11.782,0,21.333-9.551,21.333-21.333V32C106.667,20.218,97.115,10.667,85.333,10.667z M85.333,480h-64V32h64V480z"/>
	</g>
</g>
<g>
	<g>
		<rect x="10.667" y="245.333" width="53.333" height="21.333"/>
	</g>
</g>
<g>
	<g>
		<rect x="10.667" y="352" width="53.333" height="21.333"/>
	</g>
</g>
<g>
	<g>
		<rect x="10.667" y="138.667" width="53.333" height="21.333"/>
	</g>
</g>
<g>
	<g>
		<rect x="138.667" y="405.333" width="42.667" height="21.333"/>
	</g>
</g>
<g>
	<g>
		<path d="M190.208,47.413l-21.333-32c-0.635-0.849-1.388-1.602-2.237-2.236c-4.901-3.666-11.847-2.665-15.513,2.236l-21.333,32
			c-1.165,1.755-1.789,3.814-1.792,5.92v437.333c0,5.891,4.776,10.667,10.667,10.667h42.667c5.891,0,10.667-4.776,10.667-10.667
			V53.333C191.997,51.227,191.373,49.168,190.208,47.413z M170.667,480h-21.333V56.533l10.667-16l10.667,16V480z"/>
	</g>
</g>
<g>
	<g>
		<path d="M362.667,53.333H256c-11.782,0-21.333,9.551-21.333,21.333V96c0,11.782,9.551,21.333,21.333,21.333h106.667
			C374.449,117.333,384,107.782,384,96V74.667C384,62.885,374.449,53.333,362.667,53.333z M362.667,96H256V74.667h106.667V96z"/>
	</g>
</g>
<g>
	<g>
		<rect x="234.667" y="149.333" width="21.333" height="21.333"/>
	</g>
</g>
<g>
	<g>
		<rect x="394.667" y="192" width="21.333" height="21.333"/>
	</g>
</g>
<g>
	<g>
		<rect x="277.333" y="149.333" width="21.333" height="21.333"/>
	</g>
</g>
<g>
	<g>
		<rect x="320" y="234.667" width="21.333" height="21.333"/>
	</g>
</g>
<g>
	<g>
		<rect x="362.667" y="234.667" width="74.667" height="21.333"/>
	</g>
</g>
<g>
	<g>
		<rect x="320" y="149.333" width="117.333" height="21.333"/>
	</g>
</g>
<g>
	<g>
		<rect x="234.667" y="192" width="138.667" height="21.333"/>
	</g>
</g>
<g>
	<g>
		<rect x="256" y="277.333" width="21.333" height="21.333"/>
	</g>
</g>
<g>
	<g>
		<rect x="373.333" y="320" width="42.667" height="21.333"/>
	</g>
</g>
<g>
	<g>
		<rect x="234.667" y="320" width="117.333" height="21.333"/>
	</g>
</g>
<g>
	<g>
		<rect x="298.667" y="277.333" width="138.667" height="21.333"/>
	</g>
</g>
<g>
	<g>
		<rect x="234.667" y="234.667" width="64" height="21.333"/>
	</g>
</g>
<g>
	<g>
		<path d="M266.667,373.333C243.103,373.333,224,392.436,224,416c0,23.564,19.103,42.667,42.667,42.667s42.667-19.102,42.667-42.667
			C309.333,392.436,290.231,373.333,266.667,373.333z M266.667,437.333c-11.782,0-21.333-9.551-21.333-21.333
			c0-11.782,9.551-21.333,21.333-21.333c11.782,0,21.333,9.551,21.333,21.333C288,427.782,278.449,437.333,266.667,437.333z"/>
	</g>
</g>
<g>
</g>
<g>
</g>
<g>
</g>
<g>
</g>
<g>
</g>
<g>
</g>
<g>
</g>
<g>
</g>
<g>
</g>
<g>
</g>
<g>
</g>
<g>
</g>
<g>
</g>
<g>
</g>
<g>
</g>
</svg>
