<?xml version="1.0" encoding="iso-8859-1"?>
<!-- Generator: Adobe Illustrator 19.0.0, SVG Export Plug-In . SVG Version: 6.00 Build 0)  -->
<svg version="1.1" id="Capa_1" xmlns="http://www.w3.org/2000/svg" xmlns:xlink="http://www.w3.org/1999/xlink" x="0px" y="0px"
	 viewBox="0 0 512 512" style="enable-background:new 0 0 512 512;" xml:space="preserve">
<g>
	<g>
		<path d="M330.667,362.667H181.333c-5.891,0-10.667,4.776-10.667,10.667v85.333c0,5.891,4.776,10.667,10.667,10.667h149.333
			c5.891,0,10.667-4.776,10.667-10.667v-85.333C341.333,367.442,336.558,362.667,330.667,362.667z M320,448H192v-64h128V448z"/>
	</g>
</g>
<g>
	<g>
		<path d="M362.667,448H149.333c-5.891,0-10.667,4.776-10.667,10.667v32c0,11.782,9.551,21.333,21.333,21.333h192
			c11.782,0,21.333-9.551,21.333-21.333v-32C373.333,452.776,368.558,448,362.667,448z M352,490.667H160v-21.333h192V490.667z"/>
	</g>
</g>
<g>
	<g>
		<path d="M480,0H32C14.327,0,0,14.327,0,32v320c0,17.673,14.327,32,32,32h448c17.673,0,32-14.327,32-32V32
			C512,14.327,497.673,0,480,0z M490.667,352c0,5.891-4.776,10.667-10.667,10.667H32c-5.891,0-10.667-4.776-10.667-10.667V32
			c0-5.891,4.776-10.667,10.667-10.667h448c5.891,0,10.667,4.776,10.667,10.667V352z"/>
	</g>
</g>
<g>
	<g>
		<rect x="117.333" y="490.667" width="277.333" height="21.333"/>
	</g>
</g>
<g>
	<g>
		<path d="M458.667,42.667H53.333c-5.891,0-10.667,4.776-10.667,10.667v53.333H64V64h384v42.667h21.333V53.333
			C469.333,47.442,464.558,42.667,458.667,42.667z"/>
	</g>
</g>
<g>
	<g>
		<path d="M448,277.333V320H64v-42.667H42.667v53.333c0,5.891,4.776,10.667,10.667,10.667h405.333
			c5.891,0,10.667-4.776,10.667-10.667v-53.333H448z"/>
	</g>
</g>
<g>
	<g>
		<path d="M160,234.667v-21.333h-21.333v21.333c0.062,0.634,0.062,1.273,0,1.907c-0.527,5.365-5.302,9.286-10.667,8.76h-10.667
			c-0.634,0.062-1.273,0.062-1.907,0c-5.365-0.526-9.286-5.302-8.76-10.667v-85.333c-0.062-0.634-0.062-1.273,0-1.907
			c0.526-5.365,5.302-9.286,10.667-8.76H128c0.634-0.062,1.273-0.062,1.907,0c5.365,0.526,9.286,5.302,8.76,10.667v21.333H160
			v-21.333c0.018-0.606,0.018-1.213,0-1.819c-0.502-17.171-14.829-30.684-32-30.181h-13.333c-1.229,0.001-2.449,0.213-3.605,0.629
			c-15.302,2.399-26.37,15.895-25.728,31.371v85.333c-0.018,0.606-0.018,1.213,0,1.819c0.502,17.171,14.829,30.684,32,30.181h13.333
			c1.229-0.001,2.449-0.213,3.605-0.629C149.574,263.638,160.642,250.142,160,234.667z"/>
	</g>
</g>
<g>
	<g>
		<path d="M224.885,117.333h-23.104c-17.177,0.018-31.097,13.938-31.115,31.115v87.104c0.018,17.177,13.938,31.097,31.115,31.115
			h23.104c17.177-0.018,31.097-13.938,31.115-31.115v-87.104C255.982,131.271,242.062,117.351,224.885,117.333z M234.667,235.552
			c-0.006,5.4-4.382,9.775-9.781,9.781h-23.104c-5.4-0.006-9.775-4.382-9.781-9.781v-87.104c0.006-5.4,4.382-9.775,9.781-9.781
			h23.104c5.4,0.006,9.775,4.382,9.781,9.781V235.552z"/>
	</g>
</g>
<g>
	<g>
		<path d="M320.885,117.333h-43.552c-5.891,0-10.667,4.776-10.667,10.667v128c0,5.891,4.776,10.667,10.667,10.667h43.552
			c17.177-0.018,31.097-13.938,31.115-31.115v-87.104C351.982,131.271,338.062,117.351,320.885,117.333z M330.667,235.552
			c-0.006,5.4-4.382,9.775-9.781,9.781H288V138.667h32.885c5.4,0.006,9.775,4.382,9.781,9.781V235.552z"/>
	</g>
</g>
<g>
	<g>
		<path d="M426.667,138.667v-21.333h-53.333c-5.891,0-10.667,4.776-10.667,10.667v128c0,5.891,4.776,10.667,10.667,10.667h53.333
			v-21.333H384V138.667H426.667z"/>
	</g>
</g>
<g>
	<g>
		<rect x="373.333" y="181.333" width="53.333" height="21.333"/>
	</g>
</g>
<g>
	<g>
		<rect x="42.667" y="234.667" width="21.333" height="21.333"/>
	</g>
</g>
<g>
	<g>
		<rect x="42.667" y="128" width="21.333" height="21.333"/>
	</g>
</g>
<g>
	<g>
		<rect x="448" y="128" width="21.333" height="21.333"/>
	</g>
</g>
<g>
	<g>
		<rect x="448" y="234.667" width="21.333" height="21.333"/>
	</g>
</g>
<g>
	<g>
		<rect x="448" y="181.333" width="21.333" height="21.333"/>
	</g>
</g>
<g>
	<g>
		<rect x="42.667" y="181.333" width="21.333" height="21.333"/>
	</g>
</g>
<g>
</g>
<g>
</g>
<g>
</g>
<g>
</g>
<g>
</g>
<g>
</g>
<g>
</g>
<g>
</g>
<g>
</g>
<g>
</g>
<g>
</g>
<g>
</g>
<g>
</g>
<g>
</g>
<g>
</g>
</svg>
