<?xml version="1.0" encoding="iso-8859-1"?>
<!-- Generator: Adobe Illustrator 19.0.0, SVG Export Plug-In . SVG Version: 6.00 Build 0)  -->
<svg version="1.1" id="Capa_1" xmlns="http://www.w3.org/2000/svg" xmlns:xlink="http://www.w3.org/1999/xlink" x="0px" y="0px"
	 viewBox="0 0 512 512" style="enable-background:new 0 0 512 512;" xml:space="preserve">
<g>
	<g>
		<path d="M480,170.667h-64V192h64c5.891,0,10.667,4.776,10.667,10.667V480c0,5.891-4.776,10.667-10.667,10.667H32
			c-5.891,0-10.667-4.776-10.667-10.667V202.667C21.333,196.776,26.109,192,32,192h64v-21.333H32c-17.673,0-32,14.327-32,32V480
			c0,17.673,14.327,32,32,32h448c17.673,0,32-14.327,32-32V202.667C512,184.994,497.673,170.667,480,170.667z"/>
	</g>
</g>
<g>
	<g>
		<path d="M405.333,405.333H106.667C100.776,405.333,96,410.109,96,416v42.667c0,5.891,4.776,10.667,10.667,10.667h298.667
			c5.891,0,10.667-4.776,10.667-10.667V416C416,410.109,411.224,405.333,405.333,405.333z M394.667,448H117.333v-21.333h277.333V448
			z"/>
	</g>
</g>
<g>
	<g>
		<path d="M64,405.333H42.667v21.333h10.667v42.667h21.333V416C74.667,410.109,69.891,405.333,64,405.333z"/>
	</g>
</g>
<g>
	<g>
		<path d="M448,405.333c-5.891,0-10.667,4.776-10.667,10.667v53.333h21.333v-42.667h10.667v-21.333H448z"/>
	</g>
</g>
<g>
	<g>
		<path d="M106.667,309.333H64c-5.891,0-10.667,4.776-10.667,10.667v42.667c0,5.891,4.776,10.667,10.667,10.667h42.667
			c5.891,0,10.667-4.776,10.667-10.667V320C117.333,314.109,112.558,309.333,106.667,309.333z M96,352H74.667v-21.333H96V352z"/>
	</g>
</g>
<g>
	<g>
		<path d="M106.667,213.333H64c-5.891,0-10.667,4.776-10.667,10.667v42.667c0,5.891,4.776,10.667,10.667,10.667h42.667
			c5.891,0,10.667-4.776,10.667-10.667V224C117.333,218.109,112.558,213.333,106.667,213.333z M96,256H74.667v-21.333H96V256z"/>
	</g>
</g>
<g>
	<g>
		<path d="M448,213.333h-42.667c-5.891,0-10.667,4.776-10.667,10.667v42.667c0,5.891,4.776,10.667,10.667,10.667H448
			c5.891,0,10.667-4.776,10.667-10.667V224C458.667,218.109,453.891,213.333,448,213.333z M437.333,256H416v-21.333h21.333V256z"/>
	</g>
</g>
<g>
	<g>
		<path d="M192,309.333h-42.667c-5.891,0-10.667,4.776-10.667,10.667v42.667c0,5.891,4.776,10.667,10.667,10.667H192
			c5.891,0,10.667-4.776,10.667-10.667V320C202.667,314.109,197.891,309.333,192,309.333z M181.333,352H160v-21.333h21.333V352z"/>
	</g>
</g>
<g>
	<g>
		<path d="M277.333,309.333h-42.667c-5.891,0-10.667,4.776-10.667,10.667v42.667c0,5.891,4.776,10.667,10.667,10.667h42.667
			c5.891,0,10.667-4.776,10.667-10.667V320C288,314.109,283.224,309.333,277.333,309.333z M266.667,352h-21.333v-21.333h21.333V352z
			"/>
	</g>
</g>
<g>
	<g>
		<path d="M362.667,309.333H320c-5.891,0-10.667,4.776-10.667,10.667v42.667c0,5.891,4.776,10.667,10.667,10.667h42.667
			c5.891,0,10.667-4.776,10.667-10.667V320C373.333,314.109,368.558,309.333,362.667,309.333z M352,352h-21.333v-21.333H352V352z"/>
	</g>
</g>
<g>
	<g>
		<path d="M448,309.333h-42.667c-5.891,0-10.667,4.776-10.667,10.667v42.667c0,5.891,4.776,10.667,10.667,10.667H448
			c5.891,0,10.667-4.776,10.667-10.667V320C458.667,314.109,453.891,309.333,448,309.333z M437.333,352H416v-21.333h21.333V352z"/>
	</g>
</g>
<g>
	<g>
		<path d="M256,0c-76.583,0-138.667,62.083-138.667,138.667S179.417,277.333,256,277.333
			c76.547-0.088,138.578-62.12,138.667-138.667C394.667,62.083,332.583,0,256,0z M256,256c-64.801,0-117.333-52.532-117.333-117.333
			S191.199,21.333,256,21.333c64.77,0.076,117.257,52.564,117.333,117.333C373.333,203.468,320.801,256,256,256z"/>
	</g>
</g>
<g>
	<g>
		<path d="M231.541,103.541l-15.083-15.083l-42.667,42.667c-4.164,4.165-4.164,10.917,0,15.083l42.667,42.667l15.083-15.083
			l-35.125-35.125L231.541,103.541z"/>
	</g>
</g>
<g>
	<g>
		<path d="M338.208,131.125l-42.667-42.667l-15.083,15.083l35.125,35.125l-35.125,35.125l15.083,15.083l42.667-42.667
			C342.372,142.043,342.372,135.291,338.208,131.125z"/>
	</g>
</g>
<g>
</g>
<g>
</g>
<g>
</g>
<g>
</g>
<g>
</g>
<g>
</g>
<g>
</g>
<g>
</g>
<g>
</g>
<g>
</g>
<g>
</g>
<g>
</g>
<g>
</g>
<g>
</g>
<g>
</g>
</svg>
