<?xml version="1.0" encoding="iso-8859-1"?>
<!-- Generator: Adobe Illustrator 19.0.0, SVG Export Plug-In . SVG Version: 6.00 Build 0)  -->
<svg version="1.1" id="Capa_1" xmlns="http://www.w3.org/2000/svg" xmlns:xlink="http://www.w3.org/1999/xlink" x="0px" y="0px"
	 viewBox="0 0 512 512" style="enable-background:new 0 0 512 512;" xml:space="preserve">
<g>
	<g>
		<rect x="149.333" y="128" width="21.333" height="96"/>
	</g>
</g>
<g>
	<g>
		<path d="M426.667,149.333h-192c-11.782,0-21.333,9.551-21.333,21.333V192c0,11.782,9.551,21.333,21.333,21.333h192
			c11.782,0,21.333-9.551,21.333-21.333v-21.333C448,158.885,438.449,149.333,426.667,149.333z M426.667,192h-192v-21.333h192V192z"
			/>
	</g>
</g>
<g>
	<g>
		<rect x="64" y="149.333" width="53.333" height="21.333"/>
	</g>
</g>
<g>
	<g>
		<rect x="64" y="202.667" width="53.333" height="21.333"/>
	</g>
</g>
<g>
	<g>
		<path d="M458.667,0H53.333C23.893,0.035,0.035,23.893,0,53.333V224h21.333V53.333c0-17.673,14.327-32,32-32h405.333
			c17.673,0,32,14.327,32,32V224H512V53.333C511.965,23.893,488.107,0.035,458.667,0z"/>
	</g>
</g>
<g>
	<g>
		<path d="M490.667,458.667c0,17.673-14.327,32-32,32H53.333c-17.673,0-32-14.327-32-32H0C0.035,488.107,23.893,511.965,53.333,512
			h405.333c29.441-0.035,53.298-23.893,53.333-53.333H490.667z"/>
	</g>
</g>
<g>
	<g>
		<rect x="42.667" y="85.333" width="426.667" height="21.333"/>
	</g>
</g>
<g>
	<g>
		<rect x="53.333" y="42.667" width="21.333" height="21.333"/>
	</g>
</g>
<g>
	<g>
		<rect x="96" y="42.667" width="21.333" height="21.333"/>
	</g>
</g>
<g>
	<g>
		<rect x="437.333" y="42.667" width="21.333" height="21.333"/>
	</g>
</g>
<g>
	<g>
		<rect x="298.667" y="256" width="21.333" height="42.667"/>
	</g>
</g>
<g>
	<g>
		<rect x="192" y="256" width="21.333" height="42.667"/>
	</g>
</g>
<g>
	<g>
		<rect x="85.333" y="256" width="21.333" height="42.667"/>
	</g>
</g>
<g>
	<g>
		<rect x="405.333" y="256" width="21.333" height="42.667"/>
	</g>
</g>
<g>
	<g>
		<path d="M480,245.333H32c-11.782,0-21.333,9.551-21.333,21.333v64C10.667,342.449,20.218,352,32,352h448
			c11.782,0,21.333-9.551,21.333-21.333v-64C501.333,254.885,491.782,245.333,480,245.333z M480,330.667H32v-64h448V330.667z"/>
	</g>
</g>
<g>
	<g>
		<rect x="245.333" y="256" width="21.333" height="53.333"/>
	</g>
</g>
<g>
	<g>
		<rect x="138.667" y="256" width="21.333" height="53.333"/>
	</g>
</g>
<g>
	<g>
		<rect x="352" y="256" width="21.333" height="53.333"/>
	</g>
</g>
<g>
	<g>
		<rect x="85.333" y="384" width="21.333" height="42.667"/>
	</g>
</g>
<g>
	<g>
		<path d="M496.587,396.459l-32-21.333c-1.755-1.165-3.814-1.789-5.92-1.792H21.333c-5.891,0-10.667,4.776-10.667,10.667v42.667
			c0,5.891,4.776,10.667,10.667,10.667h437.333c2.106-0.003,4.165-0.627,5.92-1.792l32-21.333c1.171-0.781,2.176-1.786,2.957-2.957
			C502.812,406.35,501.488,399.727,496.587,396.459z M455.467,416H32v-21.333h423.467l16,10.667L455.467,416z"/>
	</g>
</g>
<g>
</g>
<g>
</g>
<g>
</g>
<g>
</g>
<g>
</g>
<g>
</g>
<g>
</g>
<g>
</g>
<g>
</g>
<g>
</g>
<g>
</g>
<g>
</g>
<g>
</g>
<g>
</g>
<g>
</g>
</svg>
