<?xml version="1.0" encoding="iso-8859-1"?>
<!-- Generator: Adobe Illustrator 19.0.0, SVG Export Plug-In . SVG Version: 6.00 Build 0)  -->
<svg version="1.1" id="Capa_1" xmlns="http://www.w3.org/2000/svg" xmlns:xlink="http://www.w3.org/1999/xlink" x="0px" y="0px"
	 viewBox="0 0 512 512" style="enable-background:new 0 0 512 512;" xml:space="preserve">
<g>
	<g>
		<path d="M458.667,0H53.333C23.893,0.035,0.035,23.893,0,53.333v405.333C0.035,488.107,23.893,511.965,53.333,512h405.333
			c29.441-0.035,53.298-23.893,53.333-53.333V53.333C511.965,23.893,488.107,0.035,458.667,0z M490.667,458.667
			c0,17.673-14.327,32-32,32H53.333c-17.673,0-32-14.327-32-32V53.333c0-17.673,14.327-32,32-32h405.333c17.673,0,32,14.327,32,32
			V458.667z"/>
	</g>
</g>
<g>
	<g>
		<rect x="42.667" y="85.333" width="426.667" height="21.333"/>
	</g>
</g>
<g>
	<g>
		<rect x="53.333" y="42.667" width="21.333" height="21.333"/>
	</g>
</g>
<g>
	<g>
		<rect x="96" y="42.667" width="21.333" height="21.333"/>
	</g>
</g>
<g>
	<g>
		<rect x="437.333" y="42.667" width="21.333" height="21.333"/>
	</g>
</g>
<g>
	<g>
		<rect x="170.667" y="128" width="21.333" height="341.333"/>
	</g>
</g>
<g>
	<g>
		<path d="M373.333,160H266.667c-11.782,0-21.333,9.551-21.333,21.333v21.333c0,11.782,9.551,21.333,21.333,21.333h106.667
			c11.782,0,21.333-9.551,21.333-21.333v-21.333C394.667,169.551,385.115,160,373.333,160z M373.333,202.667H266.667v-21.333
			h106.667V202.667z"/>
	</g>
</g>
<g>
	<g>
		<rect x="245.333" y="245.333" width="21.333" height="21.333"/>
	</g>
</g>
<g>
	<g>
		<rect x="405.333" y="288" width="21.333" height="21.333"/>
	</g>
</g>
<g>
	<g>
		<rect x="288" y="245.333" width="21.333" height="21.333"/>
	</g>
</g>
<g>
	<g>
		<rect x="330.667" y="330.667" width="21.333" height="21.333"/>
	</g>
</g>
<g>
	<g>
		<rect x="373.333" y="330.667" width="74.667" height="21.333"/>
	</g>
</g>
<g>
	<g>
		<rect x="330.667" y="245.333" width="117.333" height="21.333"/>
	</g>
</g>
<g>
	<g>
		<rect x="245.333" y="288" width="138.667" height="21.333"/>
	</g>
</g>
<g>
	<g>
		<rect x="266.667" y="373.333" width="21.333" height="21.333"/>
	</g>
</g>
<g>
	<g>
		<rect x="384" y="416" width="42.667" height="21.333"/>
	</g>
</g>
<g>
	<g>
		<rect x="245.333" y="416" width="117.333" height="21.333"/>
	</g>
</g>
<g>
	<g>
		<rect x="309.333" y="373.333" width="138.667" height="21.333"/>
	</g>
</g>
<g>
	<g>
		<rect x="245.333" y="330.667" width="64" height="21.333"/>
	</g>
</g>
<g>
	<g>
		<rect x="64" y="181.333" width="53.333" height="21.333"/>
	</g>
</g>
<g>
	<g>
		<rect x="64" y="234.667" width="53.333" height="21.333"/>
	</g>
</g>
<g>
	<g>
		<rect x="64" y="288" width="53.333" height="21.333"/>
	</g>
</g>
<g>
	<g>
		<rect x="64" y="341.333" width="53.333" height="21.333"/>
	</g>
</g>
<g>
	<g>
		<rect x="64" y="394.667" width="53.333" height="21.333"/>
	</g>
</g>
<g>
</g>
<g>
</g>
<g>
</g>
<g>
</g>
<g>
</g>
<g>
</g>
<g>
</g>
<g>
</g>
<g>
</g>
<g>
</g>
<g>
</g>
<g>
</g>
<g>
</g>
<g>
</g>
<g>
</g>
</svg>
