<?xml version="1.0" encoding="iso-8859-1"?>
<!-- Generator: Adobe Illustrator 19.0.0, SVG Export Plug-In . SVG Version: 6.00 Build 0)  -->
<svg version="1.1" id="Capa_1" xmlns="http://www.w3.org/2000/svg" xmlns:xlink="http://www.w3.org/1999/xlink" x="0px" y="0px"
	 viewBox="0 0 512 512" style="enable-background:new 255 255 255 1;" xml:space="preserve">
<g>
	<g>
		<path d="M458.667,0H53.333C23.893,0.035,0.035,23.893,0,53.333v405.333C0.035,488.107,23.893,511.965,53.333,512h405.333
			c29.441-0.035,53.298-23.893,53.333-53.333V53.333C511.965,23.893,488.107,0.035,458.667,0z M490.667,458.667
			c0,17.673-14.327,32-32,32H53.333c-17.673,0-32-14.327-32-32V53.333c0-17.673,14.327-32,32-32h405.333c17.673,0,32,14.327,32,32
			V458.667z"/>
	</g>
</g>
<g>
	<g>
		<rect x="42.667" y="85.333" width="160" height="21.333"/>
	</g>
</g>
<g>
	<g>
		<rect x="53.333" y="42.667" width="21.333" height="21.333"/>
	</g>
</g>
<g>
	<g>
		<rect x="96" y="42.667" width="21.333" height="21.333"/>
	</g>
</g>
<g>
	<g>
		<rect x="437.333" y="42.667" width="21.333" height="21.333"/>
	</g>
</g>
<g>
	<g>
		<path d="M448,170.667H64c-11.782,0-21.333,9.551-21.333,21.333v234.667C42.667,438.449,52.218,448,64,448h384
			c11.782,0,21.333-9.551,21.333-21.333V192C469.333,180.218,459.782,170.667,448,170.667z M448,426.667H64V192h384V426.667z"/>
	</g>
</g>
<g>
	<g>
		<path d="M263.541,88.459c-4.165-4.164-10.917-4.164-15.083,0l-85.333,85.333l15.083,15.083L256,111.083l77.461,77.461
			l15.083-15.083L263.541,88.459z"/>
	</g>
</g>
<g>
	<g>
		<rect x="309.333" y="85.333" width="149.333" height="21.333"/>
	</g>
</g>
<g>
	<g>
		<path d="M160,352v-21.333h-21.333V352c0.062,0.634,0.062,1.273,0,1.907c-0.527,5.365-5.302,9.287-10.667,8.76h-10.667
			c-0.634,0.062-1.273,0.062-1.907,0c-5.365-0.527-9.286-5.302-8.76-10.667v-85.333c-0.062-0.634-0.062-1.273,0-1.907
			c0.526-5.365,5.302-9.286,10.667-8.76H128c0.634-0.062,1.273-0.062,1.907,0c5.365,0.526,9.286,5.302,8.76,10.667V288H160v-21.333
			c0.018-0.606,0.018-1.213,0-1.819c-0.502-17.171-14.829-30.684-32-30.181h-13.333c-1.229,0-2.449,0.213-3.605,0.629
			c-15.302,2.399-26.37,15.895-25.728,31.371V352c-0.018,0.606-0.018,1.213,0,1.819c0.502,17.171,14.829,30.684,32,30.181h13.333
			c1.229,0,2.449-0.213,3.605-0.629C149.574,380.971,160.642,367.476,160,352z"/>
	</g>
</g>
<g>
	<g>
		<path d="M224.885,234.667h-23.104c-17.177,0.018-31.097,13.938-31.115,31.115v87.104c0.018,17.177,13.938,31.097,31.115,31.115
			h23.104c17.177-0.018,31.097-13.938,31.115-31.115v-87.104C255.982,248.604,242.062,234.684,224.885,234.667z M234.667,352.885
			c-0.006,5.4-4.382,9.775-9.781,9.781h-23.104c-5.4-0.006-9.775-4.382-9.781-9.781v-87.104c0.006-5.4,4.382-9.775,9.781-9.781
			h23.104c5.4,0.006,9.775,4.382,9.781,9.781V352.885z"/>
	</g>
</g>
<g>
	<g>
		<path d="M320.885,234.667h-43.552c-5.891,0-10.667,4.776-10.667,10.667v128c0,5.891,4.776,10.667,10.667,10.667h43.552
			c17.177-0.018,31.097-13.938,31.115-31.115v-87.104C351.982,248.604,338.062,234.684,320.885,234.667z M330.667,352.885
			c-0.006,5.4-4.382,9.775-9.781,9.781H288V256h32.885c5.4,0.006,9.775,4.382,9.781,9.781V352.885z"/>
	</g>
</g>
<g>
	<g>
		<path d="M426.667,256v-21.333h-53.333c-5.891,0-10.667,4.776-10.667,10.667v128c0,5.891,4.776,10.667,10.667,10.667h53.333
			v-21.333H384V256H426.667z"/>
	</g>
</g>
<g>
	<g>
		<rect x="373.333" y="298.667" width="53.333" height="21.333"/>
	</g>
</g>
<g>
</g>
<g>
</g>
<g>
</g>
<g>
</g>
<g>
</g>
<g>
</g>
<g>
</g>
<g>
</g>
<g>
</g>
<g>
</g>
<g>
</g>
<g>
</g>
<g>
</g>
<g>
</g>
<g>
</g>
</svg>
