<?xml version="1.0" encoding="iso-8859-1"?>
<!-- Generator: Adobe Illustrator 19.0.0, SVG Export Plug-In . SVG Version: 6.00 Build 0)  -->
<svg version="1.1" id="Capa_1" xmlns="http://www.w3.org/2000/svg" xmlns:xlink="http://www.w3.org/1999/xlink" x="0px" y="0px"
	 viewBox="0 0 512 512" style="enable-background:new 0 0 512 512;" xml:space="preserve">
<g>
	<g>
		<path d="M458.667,0H53.333C23.893,0.035,0.035,23.893,0,53.333v405.333C0.035,488.107,23.893,511.965,53.333,512h405.333
			c29.441-0.035,53.298-23.893,53.333-53.333V53.333C511.965,23.893,488.107,0.035,458.667,0z M490.667,458.667
			c0,17.673-14.327,32-32,32H53.333c-17.673,0-32-14.327-32-32V53.333c0-17.673,14.327-32,32-32h405.333c17.673,0,32,14.327,32,32
			V458.667z"/>
	</g>
</g>
<g>
	<g>
		<rect x="42.667" y="85.333" width="160" height="21.333"/>
	</g>
</g>
<g>
	<g>
		<rect x="53.333" y="42.667" width="21.333" height="21.333"/>
	</g>
</g>
<g>
	<g>
		<rect x="96" y="42.667" width="21.333" height="21.333"/>
	</g>
</g>
<g>
	<g>
		<rect x="437.333" y="42.667" width="21.333" height="21.333"/>
	</g>
</g>
<g>
	<g>
		<path d="M448,170.667H64c-11.782,0-21.333,9.551-21.333,21.333v234.667C42.667,438.449,52.218,448,64,448h384
			c11.782,0,21.333-9.551,21.333-21.333V192C469.333,180.218,459.782,170.667,448,170.667z M448,426.667H64V192h384V426.667z"/>
	</g>
</g>
<g>
	<g>
		<path d="M263.541,88.459c-4.165-4.164-10.917-4.164-15.083,0l-85.333,85.333l15.083,15.083L256,111.083l77.461,77.461
			l15.083-15.083L263.541,88.459z"/>
	</g>
</g>
<g>
	<g>
		<rect x="309.333" y="85.333" width="149.333" height="21.333"/>
	</g>
</g>
<g>
	<g>
		<path d="M192,352v-21.333h-21.333V352c0.062,0.634,0.062,1.273,0,1.907c-0.527,5.365-5.302,9.287-10.667,8.76h-21.333
			c-0.634,0.062-1.273,0.062-1.907,0c-5.365-0.527-9.286-5.302-8.76-10.667v-85.333c-0.062-0.634-0.062-1.273,0-1.907
			c0.526-5.365,5.302-9.286,10.667-8.76H160c0.634-0.062,1.273-0.062,1.907,0c5.365,0.526,9.286,5.302,8.76,10.667V288H192v-21.333
			c0.018-0.606,0.018-1.213,0-1.819c-0.502-17.171-14.829-30.684-32-30.181h-21.333c-0.606-0.018-1.213-0.018-1.819,0
			c-17.171,0.502-30.684,14.829-30.181,32V352c-0.018,0.606-0.018,1.213,0,1.819c0.502,17.171,14.829,30.684,32,30.181H160
			c0.606,0.018,1.213,0.018,1.819,0C178.99,383.498,192.502,369.171,192,352z"/>
	</g>
</g>
<g>
	<g>
		<path d="M266.667,234.667h-21.333c-0.467-0.01-0.935-0.01-1.402,0c-17.286,0.387-30.985,14.714-30.598,32V288
			c-0.01,0.467-0.01,0.935,0,1.402c0.387,17.286,14.714,30.985,32,30.598H256v-21.333h-10.667c-0.533,0.043-1.068,0.043-1.601,0
			c-5.449-0.442-9.508-5.218-9.066-10.667v-21.333c-0.043-0.533-0.043-1.068,0-1.601c0.442-5.449,5.218-9.508,10.667-9.066h21.333
			c0.201,0.005,0.402,0.015,0.603,0.031c6.037,0.479,10.543,5.761,10.064,11.798V288h21.333v-20.171
			c0.006-0.221,0.01-0.443,0.012-0.664C298.813,249.351,284.481,234.801,266.667,234.667z"/>
	</g>
</g>
<g>
	<g>
		<path d="M266.667,298.667H256V320h10.667c0.533-0.043,1.068-0.043,1.601,0c5.449,0.442,9.508,5.218,9.066,10.667V352
			c0.043,0.533,0.043,1.068,0,1.601c-0.442,5.449-5.218,9.508-10.667,9.066h-21.333c-0.201-0.005-0.402-0.015-0.603-0.031
			c-6.037-0.479-10.543-5.761-10.064-11.798v-20.171h-21.333v20.171c-0.006,0.221-0.01,0.443-0.012,0.664
			c-0.134,17.814,14.198,32.364,32.012,32.498h21.333c0.467,0.01,0.935,0.01,1.402,0c17.286-0.387,30.985-14.714,30.598-32v-21.333
			c0.01-0.467,0.01-0.935,0-1.402C298.279,311.978,283.953,298.279,266.667,298.667z"/>
	</g>
</g>
<g>
	<g>
		<path d="M373.333,234.667H352c-0.467-0.01-0.935-0.01-1.402,0c-17.286,0.387-30.985,14.714-30.598,32V288
			c-0.01,0.467-0.01,0.935,0,1.402c0.387,17.286,14.714,30.985,32,30.598h10.667v-21.333H352c-0.533,0.043-1.068,0.043-1.601,0
			c-5.449-0.442-9.508-5.218-9.066-10.667v-21.333c-0.043-0.533-0.043-1.068,0-1.601c0.442-5.449,5.218-9.508,10.667-9.066h21.333
			c0.201,0.005,0.402,0.015,0.603,0.031c6.037,0.479,10.543,5.761,10.064,11.798V288h21.333v-20.171
			c0.006-0.221,0.01-0.443,0.012-0.664C405.48,249.351,391.147,234.801,373.333,234.667z"/>
	</g>
</g>
<g>
	<g>
		<path d="M373.333,298.667h-10.667V320h10.667c0.533-0.043,1.068-0.043,1.601,0c5.449,0.442,9.508,5.218,9.066,10.667V352
			c0.043,0.533,0.043,1.068,0,1.601c-0.442,5.449-5.218,9.508-10.667,9.066H352c-0.201-0.005-0.402-0.015-0.603-0.031
			c-6.037-0.479-10.543-5.761-10.064-11.798v-20.171H320v20.171c-0.006,0.221-0.01,0.443-0.012,0.664
			C319.854,369.316,334.186,383.866,352,384h21.333c0.467,0.01,0.935,0.01,1.402,0c17.286-0.387,30.985-14.714,30.598-32v-21.333
			c0.01-0.467,0.01-0.935,0-1.402C404.946,311.978,390.619,298.279,373.333,298.667z"/>
	</g>
</g>
<g>
</g>
<g>
</g>
<g>
</g>
<g>
</g>
<g>
</g>
<g>
</g>
<g>
</g>
<g>
</g>
<g>
</g>
<g>
</g>
<g>
</g>
<g>
</g>
<g>
</g>
<g>
</g>
<g>
</g>
</svg>
