<?xml version="1.0" encoding="iso-8859-1"?>
<!-- Generator: Adobe Illustrator 19.0.0, SVG Export Plug-In . SVG Version: 6.00 Build 0)  -->
<svg version="1.1" id="Capa_1" xmlns="http://www.w3.org/2000/svg" xmlns:xlink="http://www.w3.org/1999/xlink" x="0px" y="0px"
	 viewBox="0 0 512 512" style="enable-background:new 0 0 512 512;" xml:space="preserve">
<g>
	<g>
		<path d="M464.007,352v20.16c-1.525,6.368-11.829,43.84-42.667,43.84c-5.891,0-10.667,4.776-10.667,10.667v64H208.007V416
			c0-33.749-20.928-42.667-32-42.667h-64c-0.866,0.056-1.735,0.056-2.602,0c-11.064-0.719-19.45-10.27-18.732-21.333v-39.765
			c-0.002-3.051-1.31-5.956-3.595-7.979C76.384,294.392,62.542,288.633,48.007,288c-0.047,0.006-0.095,0.011-0.142,0.016
			c-5.143,0.545-9.755-3.182-10.301-8.326l51.776-93.867c0.873-1.577,1.331-3.35,1.333-5.152V160
			c0.088-76.547,62.12-138.578,138.667-138.667h85.333V0H229.34c-88.324,0.1-159.9,71.676-160,160v17.931l-52,94.251
			c-0.873,1.577-1.331,3.35-1.333,5.152c-0.018,0.606-0.018,1.213,0,1.819c0.502,17.171,14.829,30.684,32,30.181
			c7.758,0.431,15.2,3.218,21.333,7.989V352c-0.024,0.808-0.024,1.617,0,2.425c0.67,22.895,19.772,40.911,42.667,40.242h63.691
			c1.835,0.117,10.976,1.696,10.976,21.333v85.333c0,5.891,4.776,10.667,10.667,10.667h224v0c5.891,0,10.667-4.776,10.667-10.667
			v-64.939c33.333-6.304,49.237-41.483,53.12-60.928c0.148-0.701,0.22-1.417,0.213-2.133V352H464.007z"/>
	</g>
</g>
<g>
	<g>
		<path d="M229.34,181.333V160h-21.333v21.333c0.062,0.634,0.062,1.273,0,1.907c-0.527,5.365-5.302,9.286-10.667,8.76h-10.667
			c-0.634,0.062-1.273,0.062-1.907,0c-5.365-0.526-9.286-5.302-8.76-10.667V96c-0.062-0.634-0.062-1.273,0-1.907
			c0.526-5.365,5.302-9.286,10.667-8.76h10.667c0.634-0.062,1.273-0.062,1.907,0c5.365,0.527,9.286,5.302,8.76,10.667v21.333h21.333
			V96c0.018-0.606,0.018-1.213,0-1.819c-0.502-17.171-14.829-30.684-32-30.181h-13.333c-1.229,0-2.449,0.213-3.605,0.629
			c-15.302,2.399-26.37,15.895-25.728,31.371v85.333c-0.018,0.606-0.018,1.213,0,1.819c0.502,17.171,14.829,30.684,32,30.181h13.333
			c1.229,0,2.449-0.213,3.605-0.629C218.914,210.305,229.982,196.809,229.34,181.333z"/>
	</g>
</g>
<g>
	<g>
		<path d="M294.225,64h-23.104c-17.177,0.018-31.097,13.938-31.115,31.115v87.104c0.018,17.177,13.938,31.097,31.115,31.115h23.104
			c17.177-0.018,31.097-13.938,31.115-31.115V95.115C325.322,77.938,311.402,64.018,294.225,64z M304.007,182.219
			c-0.006,5.4-4.382,9.775-9.781,9.781h-23.104c-5.4-0.006-9.775-4.382-9.781-9.781V95.115c0.006-5.4,4.382-9.775,9.781-9.781
			h23.104c5.4,0.006,9.775,4.382,9.781,9.781V182.219z"/>
	</g>
</g>
<g>
	<g>
		<path d="M390.225,64h-43.552c-5.891,0-10.667,4.776-10.667,10.667v128c0,5.891,4.776,10.667,10.667,10.667h43.552
			c17.177-0.018,31.097-13.938,31.115-31.115V95.115C421.322,77.938,407.402,64.018,390.225,64z M400.007,182.219
			c-0.006,5.4-4.382,9.775-9.781,9.781H357.34V85.333h32.885c5.4,0.006,9.775,4.382,9.781,9.781V182.219z"/>
	</g>
</g>
<g>
	<g>
		<path d="M496.007,85.333V64h-53.333c-5.891,0-10.667,4.776-10.667,10.667v128c0,5.891,4.776,10.667,10.667,10.667h53.333V192
			H453.34V85.333H496.007z"/>
	</g>
</g>
<g>
	<g>
		<rect x="442.673" y="128" width="53.333" height="21.333"/>
	</g>
</g>
<g>
	<g>
		<rect x="464.007" y="309.333" width="21.333" height="21.333"/>
	</g>
</g>
<g>
	<g>
		<path d="M464.007,245.333h-256v21.333h256V288h21.333v-21.333c0.006-0.295,0.006-0.589,0-0.884
			C485.096,254.245,475.545,245.089,464.007,245.333z"/>
	</g>
</g>
<g>
	<g>
		<rect x="336.007" width="21.333" height="21.333"/>
	</g>
</g>
<g>
	<g>
		<rect x="378.673" width="21.333" height="21.333"/>
	</g>
</g>
<g>
	<g>
		<rect x="421.34" width="21.333" height="21.333"/>
	</g>
</g>
<g>
	<g>
		<rect x="165.34" y="245.333" width="21.333" height="21.333"/>
	</g>
</g>
<g>
</g>
<g>
</g>
<g>
</g>
<g>
</g>
<g>
</g>
<g>
</g>
<g>
</g>
<g>
</g>
<g>
</g>
<g>
</g>
<g>
</g>
<g>
</g>
<g>
</g>
<g>
</g>
<g>
</g>
</svg>
