<?xml version="1.0" encoding="iso-8859-1"?>
<!-- Generator: Adobe Illustrator 19.0.0, SVG Export Plug-In . SVG Version: 6.00 Build 0)  -->
<svg version="1.1" id="Capa_1" xmlns="http://www.w3.org/2000/svg" xmlns:xlink="http://www.w3.org/1999/xlink" x="0px" y="0px"
	 viewBox="0 0 512 512" style="enable-background:new 0 0 512 512;" xml:space="preserve">
<g>
	<g>
		<path d="M501.333,426.667H320c-4.043-0.002-7.74,2.282-9.547,5.899L302.741,448h-93.483l-7.712-15.435
			c-1.807-3.617-5.504-5.901-9.547-5.899H10.667C4.776,426.667,0,431.442,0,437.333v53.333C0,502.449,9.551,512,21.333,512h469.333
			c11.782,0,21.333-9.551,21.333-21.333v-53.333C512,431.442,507.224,426.667,501.333,426.667z M490.667,490.667H21.333V448h164.075
			l7.712,15.435c1.807,3.617,5.504,5.901,9.547,5.899h106.667c4.062,0.022,7.784-2.265,9.6-5.899L326.592,448h164.075V490.667z"/>
	</g>
</g>
<g>
	<g>
		<path d="M53.333,106.667c-17.673,0-32,14.327-32,32v266.667h21.333V138.667c0-5.891,4.776-10.667,10.667-10.667h117.333v-21.333
			H53.333z"/>
	</g>
</g>
<g>
	<g>
		<rect x="469.333" y="298.667" width="21.333" height="106.667"/>
	</g>
</g>
<g>
	<g>
		<rect x="426.667" y="330.667" width="21.333" height="74.667"/>
	</g>
</g>
<g>
	<g>
		<path d="M74.667,149.333C68.776,149.333,64,154.109,64,160v245.333h21.333V170.667h85.333v-21.333H74.667z"/>
	</g>
</g>
<g>
	<g>
		<path d="M117.333,192c-5.891,0-10.667,4.776-10.667,10.667v32H128v-21.333h21.333V192H117.333z"/>
	</g>
</g>
<g>
	<g>
		<rect x="42.667" y="458.667" width="21.333" height="21.333"/>
	</g>
</g>
<g>
	<g>
		<rect x="448" y="458.667" width="21.333" height="21.333"/>
	</g>
</g>
<g>
	<g>
		<path d="M352,0c-88.366,0-160,71.634-160,160s71.634,160,160,160c88.324-0.1,159.9-71.676,160-160C512,71.634,440.366,0,352,0z
			 M352,298.667c-76.583,0-138.667-62.083-138.667-138.667S275.417,21.333,352,21.333C428.547,21.422,490.578,83.453,490.667,160
			C490.667,236.583,428.583,298.667,352,298.667z"/>
	</g>
</g>
<g>
	<g>
		<path d="M316.875,124.875l-15.083-15.083l-42.667,42.667c-4.164,4.165-4.164,10.917,0,15.083l42.667,42.667l15.083-15.083
			L281.749,160L316.875,124.875z"/>
	</g>
</g>
<g>
	<g>
		<path d="M444.875,152.459l-42.667-42.667l-15.083,15.083L422.251,160l-35.125,35.125l15.083,15.083l42.667-42.667
			C449.039,163.376,449.039,156.624,444.875,152.459z"/>
	</g>
</g>
<g>
</g>
<g>
</g>
<g>
</g>
<g>
</g>
<g>
</g>
<g>
</g>
<g>
</g>
<g>
</g>
<g>
</g>
<g>
</g>
<g>
</g>
<g>
</g>
<g>
</g>
<g>
</g>
<g>
</g>
</svg>
