<?xml version="1.0" encoding="iso-8859-1"?>
<!-- Generator: Adobe Illustrator 19.0.0, SVG Export Plug-In . SVG Version: 6.00 Build 0)  -->
<svg version="1.1" id="Capa_1" xmlns="http://www.w3.org/2000/svg" xmlns:xlink="http://www.w3.org/1999/xlink" x="0px" y="0px"
	 viewBox="0 0 512 512" style="enable-background:new 0 0 512 512;" xml:space="preserve">
<g>
	<g>
		<path d="M490.667,245.333v213.333c0,17.673-14.327,32-32,32H53.333c-17.673,0-32-14.327-32-32V53.333c0-17.673,14.327-32,32-32
			h224V0h-224C23.893,0.035,0.035,23.893,0,53.333v405.333C0.035,488.107,23.893,511.965,53.333,512h405.333
			c29.441-0.035,53.298-23.893,53.333-53.333V245.333H490.667z"/>
	</g>
</g>
<g>
	<g>
		<rect x="42.667" y="85.333" width="170.667" height="21.333"/>
	</g>
</g>
<g>
	<g>
		<rect x="53.333" y="42.667" width="21.333" height="21.333"/>
	</g>
</g>
<g>
	<g>
		<rect x="96" y="42.667" width="21.333" height="21.333"/>
	</g>
</g>
<g>
	<g>
		<path d="M206.773,427.499c-31.191-12.976-55.988-37.757-68.984-68.94c-27.195-65.252,3.657-140.196,68.909-167.39l-8.235-19.68
			c-34.058,14.207-61.649,40.521-77.454,73.868c-35.322,74.528-3.539,163.579,70.99,198.9v25.077h21.333v-32
			C213.329,433.032,210.743,429.155,206.773,427.499z"/>
	</g>
</g>
<g>
	<g>
		<path d="M384,309.333c0.082,51.702-31.017,98.353-78.773,118.165c-3.969,1.656-6.556,5.534-6.56,9.835v32H320v-25.077
			c52.179-24.647,85.427-77.215,85.333-134.923H384z"/>
	</g>
</g>
<g>
	<g>
		<path d="M213.333,288c-5.891,0-10.667-4.776-10.667-10.667c0-5.891,4.776-10.667,10.667-10.667
			c5.891,0,10.667,4.776,10.667,10.667h21.333c0-17.673-14.327-32-32-32c-17.673,0-32,14.327-32,32c0,17.673,14.327,32,32,32h96V288
			H213.333z"/>
	</g>
</g>
<g>
	<g>
		<rect x="245.333" y="298.667" width="21.333" height="170.667"/>
	</g>
</g>
<g>
	<g>
		<path d="M373.333,0C296.75,0,234.667,62.083,234.667,138.667s62.083,138.667,138.667,138.667
			c76.547-0.088,138.578-62.12,138.667-138.667C512,62.083,449.917,0,373.333,0z M373.333,256C308.532,256,256,203.468,256,138.667
			S308.532,21.333,373.333,21.333c64.77,0.076,117.257,52.564,117.333,117.333C490.667,203.468,438.135,256,373.333,256z"/>
	</g>
</g>
<g>
	<g>
		<path d="M348.875,103.541l-15.083-15.083l-42.667,42.667c-4.164,4.165-4.164,10.917,0,15.083l42.667,42.667l15.083-15.083
			l-35.125-35.125L348.875,103.541z"/>
	</g>
</g>
<g>
	<g>
		<path d="M455.541,131.125l-42.667-42.667l-15.083,15.083l35.125,35.125l-35.125,35.125l15.083,15.083l42.667-42.667
			C459.705,142.043,459.705,135.291,455.541,131.125z"/>
	</g>
</g>
<g>
	<g>
		<path d="M53.333,128c-5.891,0-10.667,4.776-10.667,10.667v42.667H64v-32h32V128H53.333z"/>
	</g>
</g>
<g>
	<g>
		<path d="M448,416v32h-32v21.333h42.667c5.891,0,10.667-4.776,10.667-10.667V416H448z"/>
	</g>
</g>
<g>
</g>
<g>
</g>
<g>
</g>
<g>
</g>
<g>
</g>
<g>
</g>
<g>
</g>
<g>
</g>
<g>
</g>
<g>
</g>
<g>
</g>
<g>
</g>
<g>
</g>
<g>
</g>
<g>
</g>
</svg>
