<?xml version="1.0" encoding="iso-8859-1"?>
<!-- Generator: Adobe Illustrator 19.0.0, SVG Export Plug-In . SVG Version: 6.00 Build 0)  -->
<svg version="1.1" id="Capa_1" xmlns="http://www.w3.org/2000/svg" xmlns:xlink="http://www.w3.org/1999/xlink" x="0px" y="0px"
	 viewBox="0 0 512 512" style="enable-background:new 0 0 512 512;" xml:space="preserve">
<g>
	<g>
		<rect x="64" y="64" width="106.667" height="21.333"/>
	</g>
</g>
<g>
	<g>
		<rect x="64" y="106.667" width="21.333" height="21.333"/>
	</g>
</g>
<g>
	<g>
		<rect x="106.667" y="106.667" width="21.333" height="21.333"/>
	</g>
</g>
<g>
	<g>
		<path d="M402.208,88.459L316.875,3.125c-2-2-4.713-3.125-7.541-3.125H32C14.327,0,0,14.327,0,32v448c0,17.673,14.327,32,32,32
			h213.333v-21.333H32c-5.891,0-10.667-4.776-10.667-10.667V32c0-5.891,4.776-10.667,10.667-10.667h272.917L384,100.416V192h21.333
			V96C405.333,93.171,404.209,90.459,402.208,88.459z"/>
	</g>
</g>
<g>
	<g>
		<path d="M330.667,85.333c-5.891,0-10.667-4.776-10.667-10.667v-64h-21.333v64c0,17.673,14.327,32,32,32H352V85.333H330.667z"/>
	</g>
</g>
<g>
	<g>
		<path d="M362.667,213.333c-82.475,0-149.333,66.859-149.333,149.333S280.192,512,362.667,512
			c82.438-0.088,149.245-66.895,149.333-149.333C512,280.192,445.141,213.333,362.667,213.333z M362.667,490.667
			c-70.692,0-128-57.308-128-128s57.308-128,128-128c70.661,0.076,127.924,57.339,128,128
			C490.667,433.359,433.359,490.667,362.667,490.667z"/>
	</g>
</g>
<g>
	<g>
		<path d="M338.208,327.541l-15.083-15.083l-42.667,42.667c-4.164,4.165-4.164,10.917,0,15.083l42.667,42.667l15.083-15.083
			l-35.125-35.125L338.208,327.541z"/>
	</g>
</g>
<g>
	<g>
		<path d="M444.875,355.125l-42.667-42.667l-15.083,15.083l35.125,35.125l-35.125,35.125l15.083,15.083l42.667-42.667
			C449.039,366.043,449.039,359.291,444.875,355.125z"/>
	</g>
</g>
<g>
	<g>
		<rect x="160" y="149.333" width="21.333" height="320"/>
	</g>
</g>
<g>
	<g>
		<path d="M341.333,181.333V160h-96C233.551,160,224,169.551,224,181.333v21.333c0,11.782,9.551,21.333,21.333,21.333h21.333
			v-21.333h-21.333v-21.333H341.333z"/>
	</g>
</g>
<g>
	<g>
		<rect x="64" y="181.333" width="53.333" height="21.333"/>
	</g>
</g>
<g>
	<g>
		<rect x="64" y="234.667" width="53.333" height="21.333"/>
	</g>
</g>
<g>
	<g>
		<rect x="64" y="288" width="53.333" height="21.333"/>
	</g>
</g>
<g>
	<g>
		<rect x="64" y="341.333" width="53.333" height="21.333"/>
	</g>
</g>
<g>
	<g>
		<rect x="64" y="394.667" width="53.333" height="21.333"/>
	</g>
</g>
<g>
</g>
<g>
</g>
<g>
</g>
<g>
</g>
<g>
</g>
<g>
</g>
<g>
</g>
<g>
</g>
<g>
</g>
<g>
</g>
<g>
</g>
<g>
</g>
<g>
</g>
<g>
</g>
<g>
</g>
</svg>
