<?xml version="1.0" encoding="iso-8859-1"?>
<!-- Generator: Adobe Illustrator 19.0.0, SVG Export Plug-In . SVG Version: 6.00 Build 0)  -->
<svg version="1.1" id="Capa_1" xmlns="http://www.w3.org/2000/svg" xmlns:xlink="http://www.w3.org/1999/xlink" x="0px" y="0px"
	 viewBox="0 0 512 512" style="enable-background:new 0 0 512 512;" xml:space="preserve">
<g>
	<g>
		<rect x="117.332" y="64" width="106.667" height="21.333"/>
	</g>
</g>
<g>
	<g>
		<rect x="117.332" y="106.667" width="21.333" height="21.333"/>
	</g>
</g>
<g>
	<g>
		<rect x="159.998" y="106.667" width="21.333" height="21.333"/>
	</g>
</g>
<g>
	<g>
		<path d="M455.54,88.459L370.206,3.125c-2-2-4.713-3.125-7.541-3.125H85.332c-17.673,0-32,14.327-32,32v394.667h21.333V32
			c0-5.891,4.776-10.667,10.667-10.667h272.917l79.083,79.083v326.251h21.333V96C458.664,93.171,457.54,90.459,455.54,88.459z"/>
	</g>
</g>
<g>
	<g>
		<path d="M383.998,85.333c-5.891,0-10.667-4.776-10.667-10.667v-64h-21.333v64c0,17.673,14.327,32,32,32h21.333V85.333H383.998z"/>
	</g>
</g>
<g>
	<g>
		<path d="M170.665,181.333c-17.673,0-32,14.327-32,32v53.333h-21.333V288h32c5.891,0,10.667-4.776,10.667-10.667v-64
			c0-5.891,4.776-10.667,10.667-10.667h21.333v-21.333H170.665z"/>
	</g>
</g>
<g>
	<g>
		<path d="M170.665,384c-5.891,0-10.667-4.776-10.667-10.667v-64h-21.333v64c0,17.673,14.327,32,32,32h21.333V384H170.665z"/>
	</g>
</g>
<g>
	<g>
		<path d="M362.665,298.667c-5.891,0-10.667,4.776-10.667,10.667v64c0,5.891-4.776,10.667-10.667,10.667h-21.333v21.333h21.333
			c17.673,0,32-14.327,32-32V320h21.333v-21.333H362.665z"/>
	</g>
</g>
<g>
	<g>
		<path d="M341.332,181.333h-21.333v21.333h21.333c5.891,0,10.667,4.776,10.667,10.667v64h21.333v-64
			C373.332,195.66,359.005,181.333,341.332,181.333z"/>
	</g>
</g>
<g>
	<g>
		<rect x="85.332" y="458.667" width="21.333" height="42.667"/>
	</g>
</g>
<g>
	<g>
		<path d="M496.585,471.125l-32-21.333c-1.755-1.165-3.814-1.789-5.92-1.792H21.332c-5.891,0-10.667,4.776-10.667,10.667v42.667
			c0,5.891,4.776,10.667,10.667,10.667h437.333c2.106-0.003,4.165-0.627,5.92-1.792l32-21.333c1.171-0.781,2.176-1.786,2.957-2.957
			C502.81,481.016,501.486,474.394,496.585,471.125z M455.465,490.667H31.998v-21.333h423.467l16,10.667L455.465,490.667z"/>
	</g>
</g>
<g>
	<g>
		<rect x="245.332" y="277.333" width="21.333" height="21.333"/>
	</g>
</g>
<g>
	<g>
		<rect x="287.998" y="277.333" width="21.333" height="21.333"/>
	</g>
</g>
<g>
	<g>
		<rect x="202.665" y="277.333" width="21.333" height="21.333"/>
	</g>
</g>
<g>
</g>
<g>
</g>
<g>
</g>
<g>
</g>
<g>
</g>
<g>
</g>
<g>
</g>
<g>
</g>
<g>
</g>
<g>
</g>
<g>
</g>
<g>
</g>
<g>
</g>
<g>
</g>
<g>
</g>
</svg>
