<?xml version="1.0" encoding="iso-8859-1"?>
<!-- Generator: Adobe Illustrator 19.0.0, SVG Export Plug-In . SVG Version: 6.00 Build 0)  -->
<svg version="1.1" id="Capa_1" xmlns="http://www.w3.org/2000/svg" xmlns:xlink="http://www.w3.org/1999/xlink" x="0px" y="0px"
	 viewBox="0 0 512 512" style="enable-background:new 0 0 512 512;" xml:space="preserve">
<g>
	<g>
		<path d="M501.333,352h-26.891c-1.129-3.169-2.421-6.277-3.872-9.312l19.029-19.029c4.164-4.165,4.164-10.917,0-15.083
			L459.424,278.4c-4.165-4.164-10.917-4.164-15.083,0l-19.029,19.029c-3.036-1.445-6.144-2.733-9.312-3.861v-26.901
			c0-5.891-4.776-10.667-10.667-10.667h-42.667c-5.891,0-10.667,4.776-10.667,10.667v26.901c-3.167,1.124-6.276,2.41-9.312,3.851
			L323.659,278.4c-4.165-4.164-10.917-4.164-15.083,0L278.4,308.576c-4.164,4.165-4.164,10.917,0,15.083l19.04,19.029
			c-1.451,3.035-2.743,6.143-3.872,9.312h-26.901c-5.891,0-10.667,4.776-10.667,10.667v42.667c0,5.891,4.776,10.667,10.667,10.667
			h26.901c1.125,3.169,2.414,6.277,3.861,9.312L278.4,444.341c-4.164,4.165-4.164,10.917,0,15.083l30.176,30.176
			c4.165,4.164,10.917,4.164,15.083,0l19.029-19.029c3.036,1.445,6.144,2.733,9.312,3.861v26.901
			c0,5.891,4.776,10.667,10.667,10.667h42.667c5.891,0,10.667-4.776,10.667-10.667v-26.891c3.168-1.128,6.276-2.417,9.312-3.861
			l19.029,19.019c4.165,4.164,10.917,4.164,15.083,0l30.176-30.176c4.164-4.165,4.164-10.917,0-15.083l-19.04-19.029
			c1.451-3.035,2.743-6.143,3.872-9.312h26.901c5.891,0,10.667-4.776,10.667-10.667v-42.667C512,356.776,507.224,352,501.333,352z
			 M490.667,394.656h-24.117c-4.859,0.006-9.1,3.295-10.315,8c-1.748,6.74-4.43,13.203-7.968,19.2
			c-2.474,4.194-1.794,9.531,1.653,12.971l17.067,17.067l-15.083,15.083l-17.067-17.067c-3.442-3.444-8.779-4.12-12.971-1.643
			c-5.998,3.531-12.461,6.206-19.2,7.947c-4.709,1.216-7.999,5.462-8,10.325v24.128h-21.333l0.011-24.107
			c-0.001-4.863-3.291-9.11-8-10.325c-6.739-1.741-13.202-4.416-19.2-7.947c-4.192-2.477-9.529-1.801-12.971,1.643l-17.067,17.067
			l-15.083-15.083l17.067-17.067c3.447-3.439,4.128-8.777,1.653-12.971c-3.538-5.997-6.22-12.46-7.968-19.2
			c-1.215-4.705-5.456-7.994-10.315-8h-24.128v-21.333h24.117c4.859-0.006,9.1-3.295,10.315-8c1.748-6.74,4.43-13.203,7.968-19.2
			c2.474-4.194,1.794-9.531-1.653-12.971l-17.067-17.067l15.083-15.083l17.067,17.067c3.442,3.444,8.779,4.12,12.971,1.643
			c5.998-3.531,12.461-6.206,19.2-7.947c4.709-1.216,7.999-5.462,8-10.325v-24.128h21.323v24.117c0.001,4.863,3.291,9.11,8,10.325
			c6.739,1.741,13.202,4.416,19.2,7.947c4.192,2.477,9.529,1.801,12.971-1.643l17.067-17.067l15.083,15.083l-17.067,17.067
			c-3.447,3.439-4.127,8.777-1.653,12.971c3.538,5.997,6.22,12.46,7.968,19.2c1.215,4.705,5.456,7.994,10.315,8h24.128V394.656z"/>
	</g>
</g>
<g>
	<g>
		<path d="M384,341.333c-23.564,0-42.667,19.103-42.667,42.667c0,23.564,19.102,42.667,42.667,42.667
			c23.564,0,42.667-19.102,42.667-42.667C426.667,360.436,407.564,341.333,384,341.333z M384,405.333
			c-11.782,0-21.333-9.551-21.333-21.333c0-11.782,9.551-21.333,21.333-21.333c11.782,0,21.333,9.551,21.333,21.333
			C405.333,395.782,395.782,405.333,384,405.333z"/>
	</g>
</g>
<g>
	<g>
		<path d="M458.667,0H53.333C23.893,0.035,0.035,23.893,0,53.333v405.333C0.035,488.107,23.893,511.965,53.333,512H288v-21.333
			H53.333c-17.673,0-32-14.327-32-32V53.333c0-17.673,14.327-32,32-32h405.333c17.673,0,32,14.327,32,32V256H512V53.333
			C511.965,23.893,488.107,0.035,458.667,0z"/>
	</g>
</g>
<g>
	<g>
		<rect x="42.667" y="85.333" width="426.667" height="21.333"/>
	</g>
</g>
<g>
	<g>
		<rect x="53.333" y="42.667" width="21.333" height="21.333"/>
	</g>
</g>
<g>
	<g>
		<rect x="96" y="42.667" width="21.333" height="21.333"/>
	</g>
</g>
<g>
	<g>
		<rect x="437.333" y="42.667" width="21.333" height="21.333"/>
	</g>
</g>
<g>
	<g>
		<rect x="170.667" y="128" width="21.333" height="341.333"/>
	</g>
</g>
<g>
	<g>
		<path d="M437.333,160h-192C233.551,160,224,169.551,224,181.333v21.333c0,11.782,9.551,21.333,21.333,21.333h192
			c11.782,0,21.333-9.551,21.333-21.333v-21.333C458.667,169.551,449.115,160,437.333,160z M437.333,202.667h-192v-21.333h192
			V202.667z"/>
	</g>
</g>
<g>
	<g>
		<rect x="224" y="245.333" width="21.333" height="21.333"/>
	</g>
</g>
<g>
	<g>
		<rect x="224" y="288" width="21.333" height="21.333"/>
	</g>
</g>
<g>
	<g>
		<rect x="266.667" y="245.333" width="21.333" height="21.333"/>
	</g>
</g>
<g>
	<g>
		<rect x="64" y="181.333" width="53.333" height="21.333"/>
	</g>
</g>
<g>
	<g>
		<rect x="64" y="234.667" width="53.333" height="21.333"/>
	</g>
</g>
<g>
	<g>
		<rect x="64" y="288" width="53.333" height="21.333"/>
	</g>
</g>
<g>
	<g>
		<rect x="64" y="341.333" width="53.333" height="21.333"/>
	</g>
</g>
<g>
	<g>
		<rect x="64" y="394.667" width="53.333" height="21.333"/>
	</g>
</g>
<g>
</g>
<g>
</g>
<g>
</g>
<g>
</g>
<g>
</g>
<g>
</g>
<g>
</g>
<g>
</g>
<g>
</g>
<g>
</g>
<g>
</g>
<g>
</g>
<g>
</g>
<g>
</g>
<g>
</g>
</svg>
