<?xml version="1.0" encoding="iso-8859-1"?>
<!-- Generator: Adobe Illustrator 19.0.0, SVG Export Plug-In . SVG Version: 6.00 Build 0)  -->
<svg version="1.1" id="Capa_1" xmlns="http://www.w3.org/2000/svg" xmlns:xlink="http://www.w3.org/1999/xlink" x="0px" y="0px"
	 viewBox="0 0 512 512" style="enable-background:new 0 0 512 512;" xml:space="preserve">
<g>
	<g>
		<path d="M458.667,0H53.333C23.893,0.035,0.035,23.893,0,53.333v405.333C0.035,488.107,23.893,511.965,53.333,512h405.333
			c29.441-0.035,53.298-23.893,53.333-53.333V53.333C511.965,23.893,488.107,0.035,458.667,0z M490.667,458.667
			c0,17.673-14.327,32-32,32H53.333c-17.673,0-32-14.327-32-32V53.333c0-17.673,14.327-32,32-32h405.333c17.673,0,32,14.327,32,32
			V458.667z"/>
	</g>
</g>
<g>
	<g>
		<rect x="42.667" y="85.333" width="426.667" height="21.333"/>
	</g>
</g>
<g>
	<g>
		<rect x="53.333" y="42.667" width="21.333" height="21.333"/>
	</g>
</g>
<g>
	<g>
		<rect x="96" y="42.667" width="21.333" height="21.333"/>
	</g>
</g>
<g>
	<g>
		<rect x="437.333" y="42.667" width="21.333" height="21.333"/>
	</g>
</g>
<g>
	<g>
		<path d="M320,128H192c-5.891,0-10.667,4.776-10.667,10.667v42.667c0,5.891,4.776,10.667,10.667,10.667h128
			c5.891,0,10.667-4.776,10.667-10.667v-42.667C330.667,132.776,325.891,128,320,128z M309.333,170.667H202.667v-21.333h106.667
			V170.667z"/>
	</g>
</g>
<g>
	<g>
		<path d="M181.333,384H74.667C68.776,384,64,388.776,64,394.667v64c0,5.891,4.776,10.667,10.667,10.667h106.667
			c5.891,0,10.667-4.776,10.667-10.667v-64C192,388.776,187.224,384,181.333,384z M170.667,448H85.333v-42.667h85.333V448z"/>
	</g>
</g>
<g>
	<g>
		<path d="M138.667,256h-64C68.776,256,64,260.776,64,266.667v64c0,5.891,4.776,10.667,10.667,10.667h64
			c5.891,0,10.667-4.776,10.667-10.667v-64C149.333,260.776,144.558,256,138.667,256z M128,320H85.333v-42.667H128V320z"/>
	</g>
</g>
<g>
	<g>
		<path d="M416,256h-64c-5.891,0-10.667,4.776-10.667,10.667v64c0,5.891,4.776,10.667,10.667,10.667h64
			c5.891,0,10.667-4.776,10.667-10.667v-64C426.667,260.776,421.891,256,416,256z M405.333,320h-42.667v-42.667h42.667V320z"/>
	</g>
</g>
<g>
	<g>
		<path d="M437.333,384H330.667c-5.891,0-10.667,4.776-10.667,10.667v64c0,5.891,4.776,10.667,10.667,10.667h106.667
			c5.891,0,10.667-4.776,10.667-10.667v-64C448,388.776,443.224,384,437.333,384z M426.667,448h-85.333v-42.667h85.333V448z"/>
	</g>
</g>
<g>
	<g>
		<path d="M256,245.333c-29.455,0-53.333,23.878-53.333,53.333C202.667,328.122,226.545,352,256,352
			c29.441-0.035,53.298-23.893,53.333-53.333C309.333,269.211,285.455,245.333,256,245.333z M256,330.667c-17.673,0-32-14.327-32-32
			c0-17.673,14.327-32,32-32s32,14.327,32,32C288,316.34,273.673,330.667,256,330.667z"/>
	</g>
</g>
<g>
	<g>
		<rect x="245.333" y="213.333" width="21.333" height="42.667"/>
	</g>
</g>
<g>
	<g>
		<path d="M245.333,341.333V416h-32v21.333H256c5.891,0,10.667-4.776,10.667-10.667v-85.333H245.333z"/>
	</g>
</g>
<g>
	<g>
		<rect x="256" y="416" width="42.667" height="21.333"/>
	</g>
</g>
<g>
	<g>
		<rect x="138.667" y="288" width="42.667" height="21.333"/>
	</g>
</g>
<g>
	<g>
		<rect x="373.333" y="330.667" width="21.333" height="32"/>
	</g>
</g>
<g>
	<g>
		<rect x="245.333" y="288" width="21.333" height="21.333"/>
	</g>
</g>
<g>
	<g>
		<rect x="53.333" y="181.333" width="85.333" height="21.333"/>
	</g>
</g>
<g>
	<g>
		<rect x="117.333" y="138.667" width="21.333" height="21.333"/>
	</g>
</g>
<g>
	<g>
		<rect x="74.667" y="138.667" width="21.333" height="21.333"/>
	</g>
</g>
<g>
	<g>
		<rect x="373.333" y="181.333" width="85.333" height="21.333"/>
	</g>
</g>
<g>
	<g>
		<rect x="373.333" y="138.667" width="21.333" height="21.333"/>
	</g>
</g>
<g>
	<g>
		<rect x="416" y="138.667" width="21.333" height="21.333"/>
	</g>
</g>
<g>
</g>
<g>
</g>
<g>
</g>
<g>
</g>
<g>
</g>
<g>
</g>
<g>
</g>
<g>
</g>
<g>
</g>
<g>
</g>
<g>
</g>
<g>
</g>
<g>
</g>
<g>
</g>
<g>
</g>
</svg>
