<?xml version="1.0" encoding="iso-8859-1"?>
<!-- Generator: Adobe Illustrator 19.0.0, SVG Export Plug-In . SVG Version: 6.00 Build 0)  -->
<svg version="1.1" id="Capa_1" xmlns="http://www.w3.org/2000/svg" xmlns:xlink="http://www.w3.org/1999/xlink" x="0px" y="0px"
	 viewBox="0 0 512 512" style="enable-background:new 0 0 512 512;" xml:space="preserve">
<g>
	<g>
		<path d="M458.667,0H53.333C23.893,0.035,0.035,23.893,0,53.333v405.333C0.035,488.107,23.893,511.965,53.333,512h405.333
			c29.441-0.035,53.298-23.893,53.333-53.333V53.333C511.965,23.893,488.107,0.035,458.667,0z M490.667,458.667
			c0,17.673-14.327,32-32,32H53.333c-17.673,0-32-14.327-32-32V53.333c0-17.673,14.327-32,32-32h405.333c17.673,0,32,14.327,32,32
			V458.667z"/>
	</g>
</g>
<g>
	<g>
		<rect x="42.667" y="85.333" width="426.667" height="21.333"/>
	</g>
</g>
<g>
	<g>
		<rect x="53.333" y="42.667" width="21.333" height="21.333"/>
	</g>
</g>
<g>
	<g>
		<rect x="96" y="42.667" width="21.333" height="21.333"/>
	</g>
</g>
<g>
	<g>
		<rect x="437.333" y="42.667" width="21.333" height="21.333"/>
	</g>
</g>
<g>
	<g>
		<path d="M170.667,181.333c-17.673,0-32,14.327-32,32v53.333h-21.333V288h32c5.891,0,10.667-4.776,10.667-10.667v-64
			c0-5.891,4.776-10.667,10.667-10.667H192v-21.333H170.667z"/>
	</g>
</g>
<g>
	<g>
		<path d="M170.667,384c-5.891,0-10.667-4.776-10.667-10.667v-64h-21.333v64c0,17.673,14.327,32,32,32H192V384H170.667z"/>
	</g>
</g>
<g>
	<g>
		<path d="M362.667,298.667c-5.891,0-10.667,4.776-10.667,10.667v64c0,5.891-4.776,10.667-10.667,10.667H320v21.333h21.333
			c17.673,0,32-14.327,32-32V320h21.333v-21.333H362.667z"/>
	</g>
</g>
<g>
	<g>
		<path d="M341.333,181.333H320v21.333h21.333c5.891,0,10.667,4.776,10.667,10.667v64h21.333v-64
			C373.333,195.66,359.006,181.333,341.333,181.333z"/>
	</g>
</g>
<g>
	<g>
		<rect x="245.333" y="277.333" width="21.333" height="21.333"/>
	</g>
</g>
<g>
	<g>
		<rect x="288" y="277.333" width="21.333" height="21.333"/>
	</g>
</g>
<g>
	<g>
		<rect x="202.667" y="277.333" width="21.333" height="21.333"/>
	</g>
</g>
<g>
	<g>
		<path d="M53.333,128c-5.891,0-10.667,4.776-10.667,10.667v42.667H64v-32h32V128H53.333z"/>
	</g>
</g>
<g>
	<g>
		<path d="M448,416v32h-32v21.333h42.667c5.891,0,10.667-4.776,10.667-10.667V416H448z"/>
	</g>
</g>
<g>
</g>
<g>
</g>
<g>
</g>
<g>
</g>
<g>
</g>
<g>
</g>
<g>
</g>
<g>
</g>
<g>
</g>
<g>
</g>
<g>
</g>
<g>
</g>
<g>
</g>
<g>
</g>
<g>
</g>
</svg>
