<svg xmlns="http://www.w3.org/2000/svg" xmlns:xlink="http://www.w3.org/1999/xlink" xmlns:fi="http://pattern.flaticon.com/" x="0" y="0" width="700" height="350" viewBox="0 0 700 350"><rect x="0px" y="0px" width="100%" height="100%" opacity="1" fill="#ffffff"/><defs><g transform="matrix(0.0416666679084301 0 0 0.0416666679084301 77.5 340)" id="L1_32"><path d="M472,344h-16V112c-0.026-22.08-17.92-39.974-40-40H64c-22.08,0.026-39.974,17.92-40,40v232H8c-4.418,0-8,3.582-8,8v16    c0.026,22.08,17.92,39.974,40,40h400c22.08-0.026,39.974-17.92,40-40v-16C480,347.582,476.418,344,472,344z M40,112    c0-13.255,10.745-24,24-24h352c13.255,0,24,10.745,24,24v232H40V112z M464,368c0,13.255-10.745,24-24,24H40    c-13.255,0-24-10.745-24-24v-8h448V368z"/><path d="M424,96H56c-4.418,0-8,3.582-8,8v224c0,4.418,3.582,8,8,8h368c4.418,0,8-3.582,8-8V104C432,99.582,428.418,96,424,96z     M416,320H64V112h352V320z"/></g><g transform="matrix(0.0833333358168602 0 0 0.0833333358168602 155 330)" id="L1_33"><path d="M416,120V24c0-13.255-10.745-24-24-24H174.632c-6.371-0.02-12.485,2.512-16.976,7.032L71.032,93.656     c-4.52,4.491-7.052,10.605-7.032,16.976V152h16v16H64v288c0,13.255,10.745,24,24,24h304c13.255,0,24-10.745,24-24V184h-16v-64     H416z M400,200v256c0,4.418-3.582,8-8,8H88c-4.418,0-8-3.582-8-8V184h16v-48H80v-25.368c-0.002-2.124,0.842-4.162,2.344-5.664     l86.624-86.624c1.502-1.502,3.54-2.346,5.664-2.344H208v80h32V16h16v80h32V16h16v80h32V16h16v80h32V16h8c4.418,0,8,3.582,8,8v80     h-16v96H400z"/><rect x="160px" y="32px" width="32px" height="96px"/><path d="M372.944,360c6.992-6.018,11.026-14.775,11.056-24c0-17.673-14.327-32-32-32h-48v112h48     c17.598,0.078,31.927-14.125,32.005-31.722C384.046,374.957,380.005,366.085,372.944,360z M352,400h-32v-32h32     c8.837,0,16,7.163,16,16S360.837,400,352,400z M352,352h-32v-32h32c8.837,0,16,7.163,16,16S360.837,352,352,352z"/><path d="M183.501,388c10.004,17.327,28.491,28,48.499,28c30.913-0.035,55.965-25.087,56-56h-56v16h36.608     c-8.871,20.193-32.433,29.372-52.626,20.501c-20.193-8.871-29.372-32.433-20.501-52.626     c8.871-20.193,32.433-29.372,52.626-20.501c7.794,3.424,14.29,9.249,18.541,16.626l13.848-8     c-15.464-26.784-49.713-35.961-76.497-20.497C177.214,326.967,168.037,361.216,183.501,388z"/><rect x="176px" y="432px" width="208px" height="16px"/></g><g transform="matrix(0.14086417820268365 -0.03774444279188284 0.03774444279188284 0.14086417820268365 132.13398023450276 150.2516395464064)" id="L1_34"><path d="M416,152v-41.368c0.02-6.371-2.512-12.485-7.032-16.976L322.344,7.032C317.853,2.512,311.739-0.02,305.368,0H88     C74.745,0,64,10.745,64,24v96h16v64H64v272c0,13.255,10.745,24,24,24h304c13.255,0,24-10.745,24-24V168h-16v-16H416z M400,184     v272c0,4.418-3.582,8-8,8H88c-4.418,0-8-3.582-8-8V200h16v-96H80V24c0-4.418,3.582-8,8-8h217.368     c2.124-0.002,4.162,0.842,5.664,2.344l86.624,86.624c1.502,1.502,2.346,3.54,2.344,5.664V136h-16v48H400z"/><path d="M96,448h288V208H96V448z M112,224h256v208H112V224z"/><path d="M296,304h-24v112h24c30.928,0,56-25.072,56-56C352,329.072,326.928,304,296,304z M296,400h-8v-80h8     c22.091,0,40,17.909,40,40C336,382.091,318.091,400,296,400z"/><path d="M216,320c13.008,0,24,7.328,24,16h16c0-17.648-17.944-32-40-32c-22.056,0-40,14.352-40,32s17.944,32,40,32     c13.008,0,24,7.328,24,16s-10.992,16-24,16s-24-7.328-24-16h-16c0,17.648,17.944,32,40,32c22.056,0,40-14.352,40-32     s-17.944-32-40-32c-13.008,0-24-7.328-24-16S202.992,320,216,320z"/></g><g transform="matrix(0.1875 0 0 0.1875 217.5 217.5)" id="L1_35"><path d="M352,152c-48.601,0-88,39.399-88,88c0.057,48.577,39.423,87.943,88,88c48.601,0,88-39.399,88-88     C440,191.399,400.601,152,352,152z M366.856,171.816l-1.24-2.488c12.509,2.425,24.147,8.135,33.72,16.544l-3.8,11.352     c-2.723,8.169-9.613,14.253-18.056,15.944l-6.4,1.288c-1.889-1.441-3.934-2.664-6.096-3.648     C372.338,199.018,373.047,184.256,366.856,171.816z M347.2,168.248l5.336,10.72c3.853,7.704,3.282,16.881-1.496,24.048     l-3.632,5.448c-2.346,0.323-4.648,0.908-6.864,1.744c-3.138-13.546-13.076-24.496-26.256-28.928l-2.64-0.88     C322.204,173.254,334.478,169.059,347.2,168.248z M297.872,192.68l11.352,3.784c8.169,2.723,14.253,9.613,15.944,18.056     l1.288,6.4c-1.441,1.889-2.664,3.934-3.648,6.096c-11.794-7.342-26.549-8.051-38.992-1.872l-2.488,1.24     C283.752,213.88,289.463,202.246,297.872,192.68z M293.288,277.712l-0.88,2.64c-7.147-10.547-11.345-22.813-12.16-35.528     l10.72-5.36c7.704-3.853,16.881-3.282,24.048,1.496l5.448,3.632c0.323,2.346,0.908,4.648,1.744,6.864     C308.66,254.586,297.709,264.528,293.288,277.712z M337.152,308.184l1.24,2.488c-12.509-2.425-24.147-8.135-33.72-16.544     l3.792-11.352c2.723-8.169,9.613-14.253,18.056-15.944l6.408-1.288c1.889,1.441,3.934,2.664,6.096,3.648     C331.67,280.982,330.961,295.744,337.152,308.184z M336,240c0-8.837,7.163-16,16-16s16,7.163,16,16s-7.163,16-16,16     S336,248.837,336,240z M356.8,311.752l-5.336-10.72c-3.853-7.704-3.282-16.881,1.496-24.048l3.632-5.448     c2.346-0.323,4.648-0.908,6.864-1.744c3.138,13.546,13.076,24.496,26.256,28.928l2.64,0.88     C381.796,306.746,369.522,310.941,356.8,311.752z M406.13,287.318l-11.346-3.782c-8.169-2.723-14.253-9.613-15.944-18.056     l-1.288-6.4c1.443-1.892,2.669-3.939,3.656-6.104c11.773,7.397,26.554,8.11,38.984,1.88l2.488-1.24     C420.254,266.12,414.541,277.753,406.13,287.318z M413.032,240.536c-7.707,3.838-16.876,3.267-24.048-1.496l-5.448-3.632     c-0.323-2.346-0.908-4.648-1.744-6.864c13.548-3.13,24.499-13.072,28.92-26.256l0.88-2.64     c7.147,10.547,11.345,22.813,12.16,35.528L413.032,240.536z"/><path d="M160,152c-48.601,0-88,39.399-88,88c0.057,48.577,39.423,87.943,88,88c48.601,0,88-39.399,88-88     C248,191.399,208.601,152,160,152z M174.856,171.816l-1.24-2.488c12.509,2.425,24.147,8.135,33.72,16.544l-3.8,11.352     c-2.723,8.169-9.613,14.253-18.056,15.944l-6.4,1.288c-1.889-1.441-3.934-2.664-6.096-3.648     C180.338,199.018,181.047,184.256,174.856,171.816z M155.2,168.248l5.336,10.72c3.853,7.704,3.282,16.881-1.496,24.048     l-3.632,5.448c-2.346,0.323-4.648,0.908-6.864,1.744c-3.138-13.546-13.076-24.496-26.256-28.928l-2.64-0.88     C130.204,173.254,142.478,169.059,155.2,168.248z M105.872,192.68l11.352,3.784c8.169,2.723,14.253,9.613,15.944,18.056     l1.288,6.4c-1.441,1.889-2.664,3.934-3.648,6.096c-11.794-7.342-26.549-8.051-38.992-1.872l-2.488,1.24     C91.752,213.88,97.463,202.246,105.872,192.68z M101.288,277.712l-0.88,2.64c-7.147-10.547-11.345-22.813-12.16-35.528     l10.72-5.36c7.704-3.853,16.881-3.282,24.048,1.496l5.448,3.632c0.323,2.346,0.908,4.648,1.744,6.864     C116.66,254.586,105.709,264.528,101.288,277.712z M145.152,308.184l1.24,2.488c-12.509-2.425-24.147-8.135-33.72-16.544     l3.792-11.352c2.723-8.169,9.613-14.253,18.056-15.944l6.408-1.288c1.889,1.441,3.934,2.664,6.096,3.648     C139.67,280.982,138.961,295.744,145.152,308.184z M144,240c0-8.837,7.163-16,16-16s16,7.163,16,16s-7.163,16-16,16     S144,248.837,144,240z M164.8,311.752l-5.336-10.72c-3.853-7.704-3.282-16.881,1.496-24.048l3.632-5.448     c2.346-0.323,4.648-0.908,6.864-1.744c3.138,13.546,13.076,24.496,26.256,28.928l2.64,0.88     C189.796,306.746,177.522,310.941,164.8,311.752z M214.13,287.318l-11.346-3.782c-8.169-2.723-14.253-9.613-15.944-18.056     l-1.288-6.4c1.443-1.892,2.669-3.939,3.656-6.104c11.773,7.397,26.554,8.11,38.984,1.88l2.488-1.24     C228.254,266.12,222.541,277.753,214.13,287.318z M221.032,240.536c-7.707,3.838-16.876,3.267-24.048-1.496l-5.448-3.632     c-0.323-2.346-0.908-4.648-1.744-6.864c13.548-3.13,24.499-13.072,28.92-26.256l0.88-2.64     c7.147,10.547,11.345,22.813,12.16,35.528L221.032,240.536z"/><path d="M440,96H48V80c0-13.255-10.745-24-24-24H0v16h24c4.418,0,8,3.582,8,8v136H16v16h16v8H8v96h24v8H16v16h16v64h16v-40h32v32     h80v-32h16v32h176v-32h88c22.08-0.026,39.974-17.92,40-40V136C479.974,113.92,462.08,96.026,440,96z M32,320h-8v-64h8V320z      M112,400H96v-16h16V400z M144,400h-16v-16h16V400z M208,400h-16v-16h16V400z M240,400h-16v-16h16V400z M272,400h-16v-16h16V400z      M304,400h-16v-16h16V400z M336,400h-16v-16h16V400z M464,344c0,13.255-10.745,24-24,24H48v-48h28.688l32,32h101.976l32-24     h26.672l32,24h101.352l45.016-40H464V344z M464,296h-22.4l-45.016,40h-89.92l-32-24h-37.328l-32,24h-90.024l-32-32H48V176h35.312     l32-32h90.024l32,24h37.328l32-24h89.944l44.992,40H464V296z M464,168h-16.296l-45.016-40H301.336l-32,24h-26.672l-32-24H108.688     l-32,32H48v-48h392c13.255,0,24,10.745,24,24V168z"/></g><g transform="matrix(0.18111109242920032 0.04852857095672264 -0.04852857095672264 0.18111109242920032 -31.819805153394643 -55.11351921262151)" id="L1_36"><path d="M351.736,0H40v480h400V84.584L351.736,0z M144,16h176v128H144V16z M368,464H112V288h256V464z M424,464h-40V272H96v192H56     V16h72v144h208V16h9.312L424,91.416V464z"/><path d="M256,128h48V32h-48V128z M272,48h16v64h-16V48z"/><rect x="144px" y="320px" width="192px" height="16px"/><rect x="144px" y="352px" width="192px" height="16px"/></g><path d="M408,288.64V88c0-48.601-39.399-88-88-88s-88,39.399-88,88v304c0,39.764-32.235,72-72,72c-39.764,0-72-32.236-72-72    V191.36c27.517-3.992,47.947-27.555,48-55.36V48c0-4.418-3.582-8-8-8h-8V8c0-4.418-3.582-8-8-8H48c-4.418,0-8,3.582-8,8v32h-8    c-4.418,0-8,3.582-8,8v88c0.053,27.805,20.483,51.367,48,55.36V392c0,48.601,39.399,88,88,88s88-39.399,88-88V88    c0-39.765,32.236-72,72-72c39.765,0,72,32.235,72,72v200.64c-27.517,3.992-47.947,27.555-48,55.36v88c0,4.418,3.582,8,8,8h8v32    c0,4.418,3.582,8,8,8h64c4.418,0,8-3.582,8-8v-32h8c4.418,0,8-3.582,8-8v-88C455.947,316.195,435.517,292.633,408,288.64z M56,16    h48v24H56V16z M40,136V56h80v80c0,22.091-17.909,40-40,40S40,158.091,40,136z M424,464h-48v-24h48V464z M440,424h-80v-80    c0-22.091,17.909-40,40-40c22.091,0,40,17.909,40,40V424z" transform="matrix(0.1041666641831398 0 0 0.1041666641831398 62.5 237.5)" id="L1_37"/><g transform="matrix(0.08290310204029083 0 0 0.08290310204029083 242.5 67.5)" id="L1_38"><path d="M466.025,16.403c-21.87-21.87-57.33-21.87-79.2,0L245.393,157.835l-22.624-22.624l56.568-56.568    c3.123-3.124,3.123-8.188,0-11.312l-45.256-45.256c-3.124-3.123-8.188-3.123-11.312,0L98.313,146.523    c-3.123,3.124-3.123,8.188,0,11.312l45.264,45.256c3.124,3.123,8.188,3.123,11.312,0l56.568-56.568l22.624,22.624l-90.504,90.512    c-3.123,3.124-3.123,8.188,0,11.312l28.28,28.288l-11.768,11.768c-22.28-16.636-53.388-14.423-73.088,5.2    c-3.123,3.124-3.123,8.188,0,11.312l12.12,12.12c-9.023,15.083-4.111,34.625,10.972,43.648c10.061,6.019,22.615,6.019,32.676,0    l12.12,12.12c3.124,3.123,8.188,3.123,11.312,0c19.643-19.691,21.857-50.814,5.2-73.088l11.768-11.768l28.288,28.28    c3.124,3.123,8.188,3.123,11.312,0l90.512-90.504l22.624,22.624l-56.568,56.568c-3.123,3.124-3.123,8.188,0,11.312l45.256,45.264    c3.124,3.123,8.188,3.123,11.312,0l124.448-124.456c3.123-3.124,3.123-8.188,0-11.312l-45.256-45.256    c-3.174-3.001-8.138-3.001-11.312,0l-56.568,56.568l-22.624-22.624L466.025,95.603C487.895,73.732,487.895,38.273,466.025,16.403z     M149.225,186.123l-33.952-33.944L228.425,39.043l33.944,33.944L149.225,186.123z M115.281,367.147    c-4.003-4.045-5.557-9.912-4.08-15.408l19.488,19.488C125.192,372.704,119.325,371.15,115.281,367.147z M159.969,377.883    l-55.424-55.424c18.431-12.179,43.245-7.11,55.424,11.322C168.805,347.153,168.805,364.51,159.969,377.883z M409.441,220.059    l33.944,33.944L330.249,367.147l-33.944-33.944L409.441,220.059z M217.113,321.883l-56.568-56.568L369.849,56.011l56.568,56.568    L217.113,321.883z M454.697,84.299l-16.968,16.968l-56.568-56.568l16.968-16.968c15.552-15.689,40.879-15.8,56.568-0.248    c15.689,15.552,15.8,40.879,0.248,56.568C454.862,84.134,454.78,84.217,454.697,84.299z"/><path d="M125.389,409.143c-0.592-4.381-4.623-7.452-9.004-6.86c-0.656,0.096-1.32,0.112-1.984,0.16    c-4.622,0.297-9.254-0.376-13.6-1.976l-0.184-0.072c-2.041-0.77-3.995-1.752-5.832-2.928c-0.152-0.096-0.296-0.216-0.448-0.312    c-1.808-1.186-3.489-2.556-5.016-4.088l-0.096-0.12c-1.644-1.7-3.093-3.578-4.32-5.6c-0.4-0.664-0.656-1.392-1.008-2.08    c-0.765-1.393-1.428-2.839-1.984-4.328c-0.344-1.016-0.504-2.072-0.752-3.12c-0.323-1.221-0.575-2.461-0.752-3.712    c-0.102-1.264-0.131-2.533-0.088-3.8c-0.063-1.503-0.017-3.008,0.136-4.504c0.7-4.362-2.269-8.467-6.631-9.167    c-4.362-0.7-8.467,2.269-9.167,6.631c-0.009,0.059-0.018,0.117-0.026,0.176c-0.144,0.936-0.168,1.88-0.256,2.824    c0,0.064-0.048,0.12-0.056,0.184c0,0.216,0,0.432,0,0.648c-0.144,1.304-0.184,2.528-0.176,3.792c0,0.592,0,1.184,0.056,1.776    c0.048,1.104,0.128,2.2,0.248,3.296c0.096,0.8,0.216,1.6,0.352,2.4c0.136,0.8,0.296,1.776,0.488,2.648    c0.224,1.008,0.504,2,0.8,2.992c0.192,0.672,0.376,1.344,0.6,2c0.392,1.168,0.856,2.304,1.336,3.432    c0.216,0.496,0.4,0.992,0.624,1.48c0.576,1.232,1.232,2.4,1.92,3.624c0.208,0.368,0.392,0.752,0.616,1.12    c0.8,1.272,1.64,2.496,2.544,3.696c0.192,0.256,0.352,0.528,0.544,0.8c1.128,1.447,2.338,2.828,3.624,4.136    c3.357,3.41,7.215,6.289,11.44,8.536c7.025,3.763,14.871,5.733,22.84,5.736c0.456,0,0.92-0.072,1.384-0.088    c0.64,0,1.272,0,1.912-0.064c0.112,0,0.2-0.072,0.304-0.08c0.92-0.072,1.832-0.064,2.752-0.184    C122.909,417.555,125.981,413.524,125.389,409.143z"/><path d="M127.715,473.787c-0.227-4.412-3.988-7.805-8.4-7.579c-0.121,0.006-0.242,0.015-0.362,0.027h-0.032    c-2.528,0.184-5.104,0.264-7.552,0.256c-52.926-0.292-95.594-43.433-95.302-96.359c0.014-2.594,0.134-5.185,0.358-7.769    c0.374-4.4-2.888-8.271-7.288-8.648c-4.311-0.451-8.171,2.677-8.622,6.988c-0.01,0.1-0.019,0.2-0.026,0.3    c-5.338,61.528,40.212,115.733,101.74,121.071c3,0.26,6.009,0.399,9.02,0.417h0.888c2.64,0,5.304-0.104,8-0.304    C124.549,481.96,127.942,478.199,127.715,473.787z"/><path d="M117.13,434.297c-0.158,0.007-0.316,0.018-0.473,0.034c-35.18,2.59-65.799-23.829-68.39-59.009    c-0.251-3.412-0.228-6.838,0.07-10.247c0.387-4.401-2.867-8.283-7.268-8.67c-0.007-0.001-0.013-0.001-0.02-0.002    c-4.321-0.443-8.182,2.7-8.625,7.021c-0.009,0.089-0.017,0.178-0.023,0.267c-3.826,43.937,28.69,82.657,72.627,86.483    c2.332,0.203,4.672,0.304,7.013,0.301v0.024c1.912,0,3.84-0.072,5.76-0.216c4.414-0.185,7.843-3.914,7.658-8.328    C125.273,437.54,121.544,434.112,117.13,434.297z"/><path d="M358.541,123.887c-9.376-9.373-24.575-9.372-33.948,0.004L200.145,248.347c-9.534,9.208-9.798,24.402-0.59,33.936    c9.208,9.534,24.402,9.798,33.936,0.59c0.2-0.193,0.396-0.39,0.59-0.59l124.456-124.448h0.008    C367.918,148.459,367.916,133.26,358.541,123.887z M347.225,146.523L347.225,146.523L222.769,270.971    c-3.159,3.038-8.153,3.038-11.312,0c-3.118-3.123-3.118-8.181,0-11.304l124.448-124.456c3.124-3.126,8.19-3.128,11.316-0.004    S350.348,143.397,347.225,146.523z"/></g><g transform="matrix(0.1458333283662796 0 0 0.1458333283662796 315 140)" id="L1_39"><path d="M472,24H8c-4.418,0-8,3.582-8,8v416c0,4.418,3.582,8,8,8h464c4.418,0,8-3.582,8-8V32C480,27.582,476.418,24,472,24z     M464,440H16V40h448V440z"/><path d="M72,96v224h64v32h48v32h112v-32h48v-32h64V96H72z M392,304h-64v32h-48v32h-80v-32h-48v-32H88V112h16v72h16v-72h16v72h16    v-72h16v72h16v-72h16v72h16v-72h16v72h16v-72h16v72h16v-72h16v72h16v-72h16v72h16v-72h16v72h16v-72h16V304z"/></g><g transform="matrix(0.0833333358168602 0 0 0.0833333358168602 67.5 67.5)" id="L1_40"><path d="M152,24c-4.418,0-8,3.582-8,8v32c0,4.418,3.582,8,8,8s8-3.582,8-8V32C160,27.582,156.418,24,152,24z"/><path d="M88,24c-4.418,0-8,3.582-8,8v32c0,4.418,3.582,8,8,8s8-3.582,8-8V32C96,27.582,92.418,24,88,24z"/><path d="M440,208H208V104c0-4.418-3.582-8-8-8h-16V8c0-4.418-3.582-8-8-8H64c-4.418,0-8,3.582-8,8v88H40c-4.418,0-8,3.582-8,8v336    c0,4.418,3.582,8,8,8h16v8c0,13.255,10.745,24,24,24h80c13.255,0,24-10.745,24-24v-8h16c4.418,0,8-3.582,8-8v-56h232    c4.418,0,8-3.582,8-8V216C448,211.582,444.418,208,440,208z M72,16h96v80H72V16z M48,112h144v96h-72    c-28.698,0.031-55.575,14.067-72,37.6V112z M168,456c0,4.418-3.582,8-8,8H80c-4.418,0-8-3.582-8-8v-8h96V456z M192,432H48v-85.56    c16.434,23.518,43.309,37.538,72,37.56h72V432z M432,368H120c-39.765,0-72-32.236-72-72c0-39.765,32.235-72,72-72h312V368z"/><path d="M120,256c-22.091,0-40,17.909-40,40c0,22.091,17.909,40,40,40s40-17.909,40-40C159.974,273.92,142.08,256.026,120,256z     M120,320c-13.255,0-24-10.745-24-24s10.745-24,24-24s24,10.745,24,24S133.255,320,120,320z"/><path d="M360,256h-96c-4.418,0-8,3.582-8,8s3.582,8,8,8h96c4.418,0,8-3.582,8-8S364.418,256,360,256z"/><path d="M360,320h-96c-4.418,0-8,3.582-8,8s3.582,8,8,8h96c4.418,0,8-3.582,8-8S364.418,320,360,320z"/></g><path d="M380,192V88c0-48.601-39.399-88-88-88s-88,39.399-88,88v160c0,39.764-32.235,72-72,72s-72-32.236-72-72v-64    c0-13.255-10.745-24-24-24H12v16h24c4.418,0,8,3.582,8,8v64c0,48.601,39.399,88,88,88s88-39.399,88-88V88    c0-39.765,32.236-72,72-72c39.765,0,72,32.235,72,72v104c-48.577,0.057-87.943,39.423-88,88v112c0.057,48.577,39.423,87.943,88,88    h16c48.577-0.057,87.943-39.423,88-88V280C467.943,231.423,428.577,192.057,380,192z M380,208    c33.569,0.056,62.655,23.277,70.144,56h0H396v-8c-0.042-10.134-6.445-19.15-16-22.528V208z M372,248c4.418,0,8,3.582,8,8v32    c0,4.418-3.582,8-8,8s-8-3.582-8-8v-32C364,251.582,367.582,248,372,248z M364,208v25.472c-9.555,3.378-15.958,12.394-16,22.528v8    h-54.144C301.345,231.277,330.431,208.056,364,208z M452,392c-0.044,39.746-32.254,71.956-72,72h-16    c-39.746-0.044-71.956-32.254-72-72V280h56v8c0,13.255,10.745,24,24,24s24-10.745,24-24v-8h56V392z" transform="matrix(0.0416666679084301 0 0 0.0416666679084301 252.5 340)" id="L1_41"/><path d="M165,0C74.019,0,0,74.019,0,165s74.019,165,165,165c90.982,0,165-74.019,165-165S255.982,0,165,0z" transform="matrix(0.03030303120613098 0 0 0.03030303120613098 257.5 257.5)" id="L1_42" fill="#015e25"/></defs><g fi:class="KUsePattern"><pattern id="pattern_L1_32" width="350" height="350" patternUnits="userSpaceOnUse"><use xlink:href="#L1_32" x="-350" y="-350"/><use xlink:href="#L1_32" x="0" y="-350"/><use xlink:href="#L1_32" x="350" y="-350"/><use xlink:href="#L1_32" x="-350" y="0"/><use xlink:href="#L1_32" x="0" y="0"/><use xlink:href="#L1_32" x="350" y="0"/><use xlink:href="#L1_32" x="-350" y="350"/><use xlink:href="#L1_32" x="0" y="350"/><use xlink:href="#L1_32" x="350" y="350"/></pattern><rect x="0" y="0" width="100%" height="100%" fill="url(#pattern_L1_32)"/></g><g fi:class="KUsePattern"><pattern id="pattern_L1_33" width="350" height="350" patternUnits="userSpaceOnUse"><use xlink:href="#L1_33" x="-350" y="-350"/><use xlink:href="#L1_33" x="0" y="-350"/><use xlink:href="#L1_33" x="350" y="-350"/><use xlink:href="#L1_33" x="-350" y="0"/><use xlink:href="#L1_33" x="0" y="0"/><use xlink:href="#L1_33" x="350" y="0"/><use xlink:href="#L1_33" x="-350" y="350"/><use xlink:href="#L1_33" x="0" y="350"/><use xlink:href="#L1_33" x="350" y="350"/></pattern><rect x="0" y="0" width="100%" height="100%" fill="url(#pattern_L1_33)"/></g><g fi:class="KUsePattern"><pattern id="pattern_L1_34" width="350" height="350" patternUnits="userSpaceOnUse"><use xlink:href="#L1_34" x="-350" y="-350"/><use xlink:href="#L1_34" x="0" y="-350"/><use xlink:href="#L1_34" x="350" y="-350"/><use xlink:href="#L1_34" x="-350" y="0"/><use xlink:href="#L1_34" x="0" y="0"/><use xlink:href="#L1_34" x="350" y="0"/><use xlink:href="#L1_34" x="-350" y="350"/><use xlink:href="#L1_34" x="0" y="350"/><use xlink:href="#L1_34" x="350" y="350"/></pattern><rect x="0" y="0" width="100%" height="100%" fill="url(#pattern_L1_34)"/></g><g fi:class="KUsePattern"><pattern id="pattern_L1_35" width="350" height="350" patternUnits="userSpaceOnUse"><use xlink:href="#L1_35" x="-350" y="-350"/><use xlink:href="#L1_35" x="0" y="-350"/><use xlink:href="#L1_35" x="350" y="-350"/><use xlink:href="#L1_35" x="-350" y="0"/><use xlink:href="#L1_35" x="0" y="0"/><use xlink:href="#L1_35" x="350" y="0"/><use xlink:href="#L1_35" x="-350" y="350"/><use xlink:href="#L1_35" x="0" y="350"/><use xlink:href="#L1_35" x="350" y="350"/></pattern><rect x="0" y="0" width="100%" height="100%" fill="url(#pattern_L1_35)"/></g><g fi:class="KUsePattern"><pattern id="pattern_L1_36" width="350" height="350" patternUnits="userSpaceOnUse"><use xlink:href="#L1_36" x="-350" y="-350"/><use xlink:href="#L1_36" x="0" y="-350"/><use xlink:href="#L1_36" x="350" y="-350"/><use xlink:href="#L1_36" x="-350" y="0"/><use xlink:href="#L1_36" x="0" y="0"/><use xlink:href="#L1_36" x="350" y="0"/><use xlink:href="#L1_36" x="-350" y="350"/><use xlink:href="#L1_36" x="0" y="350"/><use xlink:href="#L1_36" x="350" y="350"/></pattern><rect x="0" y="0" width="100%" height="100%" fill="url(#pattern_L1_36)"/></g><g fi:class="KUsePattern"><pattern id="pattern_L1_37" width="350" height="350" patternUnits="userSpaceOnUse"><use xlink:href="#L1_37" x="-350" y="-350"/><use xlink:href="#L1_37" x="0" y="-350"/><use xlink:href="#L1_37" x="350" y="-350"/><use xlink:href="#L1_37" x="-350" y="0"/><use xlink:href="#L1_37" x="0" y="0"/><use xlink:href="#L1_37" x="350" y="0"/><use xlink:href="#L1_37" x="-350" y="350"/><use xlink:href="#L1_37" x="0" y="350"/><use xlink:href="#L1_37" x="350" y="350"/></pattern><rect x="0" y="0" width="100%" height="100%" fill="url(#pattern_L1_37)"/></g><g fi:class="KUsePattern"><pattern id="pattern_L1_38" width="350" height="350" patternUnits="userSpaceOnUse"><use xlink:href="#L1_38" x="-350" y="-350"/><use xlink:href="#L1_38" x="0" y="-350"/><use xlink:href="#L1_38" x="350" y="-350"/><use xlink:href="#L1_38" x="-350" y="0"/><use xlink:href="#L1_38" x="0" y="0"/><use xlink:href="#L1_38" x="350" y="0"/><use xlink:href="#L1_38" x="-350" y="350"/><use xlink:href="#L1_38" x="0" y="350"/><use xlink:href="#L1_38" x="350" y="350"/></pattern><rect x="0" y="0" width="100%" height="100%" fill="url(#pattern_L1_38)"/></g><g fi:class="KUsePattern"><pattern id="pattern_L1_39" width="350" height="350" patternUnits="userSpaceOnUse"><use xlink:href="#L1_39" x="-350" y="-350"/><use xlink:href="#L1_39" x="0" y="-350"/><use xlink:href="#L1_39" x="350" y="-350"/><use xlink:href="#L1_39" x="-350" y="0"/><use xlink:href="#L1_39" x="0" y="0"/><use xlink:href="#L1_39" x="350" y="0"/><use xlink:href="#L1_39" x="-350" y="350"/><use xlink:href="#L1_39" x="0" y="350"/><use xlink:href="#L1_39" x="350" y="350"/></pattern><rect x="0" y="0" width="100%" height="100%" fill="url(#pattern_L1_39)"/></g><g fi:class="KUsePattern"><pattern id="pattern_L1_40" width="350" height="350" patternUnits="userSpaceOnUse"><use xlink:href="#L1_40" x="-350" y="-350"/><use xlink:href="#L1_40" x="0" y="-350"/><use xlink:href="#L1_40" x="350" y="-350"/><use xlink:href="#L1_40" x="-350" y="0"/><use xlink:href="#L1_40" x="0" y="0"/><use xlink:href="#L1_40" x="350" y="0"/><use xlink:href="#L1_40" x="-350" y="350"/><use xlink:href="#L1_40" x="0" y="350"/><use xlink:href="#L1_40" x="350" y="350"/></pattern><rect x="0" y="0" width="100%" height="100%" fill="url(#pattern_L1_40)"/></g><g fi:class="KUsePattern"><pattern id="pattern_L1_41" width="350" height="350" patternUnits="userSpaceOnUse"><use xlink:href="#L1_41" x="-350" y="-350"/><use xlink:href="#L1_41" x="0" y="-350"/><use xlink:href="#L1_41" x="350" y="-350"/><use xlink:href="#L1_41" x="-350" y="0"/><use xlink:href="#L1_41" x="0" y="0"/><use xlink:href="#L1_41" x="350" y="0"/><use xlink:href="#L1_41" x="-350" y="350"/><use xlink:href="#L1_41" x="0" y="350"/><use xlink:href="#L1_41" x="350" y="350"/></pattern><rect x="0" y="0" width="100%" height="100%" fill="url(#pattern_L1_41)"/></g><g fi:class="KUsePattern"><pattern id="pattern_L1_42" width="350" height="350" patternUnits="userSpaceOnUse"><use xlink:href="#L1_42" x="-350" y="-350"/><use xlink:href="#L1_42" x="0" y="-350"/><use xlink:href="#L1_42" x="350" y="-350"/><use xlink:href="#L1_42" x="-350" y="0"/><use xlink:href="#L1_42" x="0" y="0"/><use xlink:href="#L1_42" x="350" y="0"/><use xlink:href="#L1_42" x="-350" y="350"/><use xlink:href="#L1_42" x="0" y="350"/><use xlink:href="#L1_42" x="350" y="350"/></pattern><rect x="0" y="0" width="100%" height="100%" fill="url(#pattern_L1_42)"/></g></svg>