<svg xmlns="http://www.w3.org/2000/svg" xmlns:xlink="http://www.w3.org/1999/xlink" xmlns:fi="http://pattern.flaticon.com/" x="0" y="0" width="700" height="350" viewBox="0 0 700 350"><rect x="0px" y="0px" width="100%" height="100%" opacity="1" fill="#ffffff"/><defs><g transform="matrix(0.1458333283662796 0 0 0.1458333283662796 315 140)" id="L1_192"><path d="M319.488,112.56L311.448,0H168.552l-8,112.56C132.775,116.287,112.031,139.974,112,168v144     c0.029,28.012,20.751,51.694,48.512,55.44l8,112.56h142.936l8.04-112.56c27.761-3.746,48.483-27.428,48.512-55.44V168     C367.971,139.988,347.249,116.306,319.488,112.56z M183.448,16h113.104l6.856,96H176.592L183.448,16z M296.552,464H183.448     l-6.856-96h126.816L296.552,464z M352,312c-0.026,22.08-17.92,39.974-40,40H168c-22.08-0.026-39.974-17.92-40-40V168     c0.026-22.08,17.92-39.974,40-40h144c22.08,0.026,39.974,17.92,40,40V312z"/><path d="M232,232 176,232 176,248 248,248 248,144 232,144z"/></g><g transform="matrix(0.14086417820268365 -0.03774444279188284 0.03774444279188284 0.14086417820268365 132.1338793039195 150.2508850722234)" id="L1_193"><path d="M416,120V24c0-13.255-10.745-24-24-24H174.632c-6.371-0.02-12.485,2.512-16.976,7.032L71.032,93.656     c-4.52,4.491-7.052,10.605-7.032,16.976V152h16v16H64v288c0,13.255,10.745,24,24,24h304c13.255,0,24-10.745,24-24V184h-16v-64     H416z M400,200v256c0,4.418-3.582,8-8,8H88c-4.418,0-8-3.582-8-8V184h16v-48H80v-25.368c-0.002-2.124,0.842-4.162,2.344-5.664     l86.624-86.624c1.502-1.502,3.54-2.346,5.664-2.344H208v80h32V16h16v80h32V16h16v80h32V16h16v80h32V16h8c4.418,0,8,3.582,8,8v80     h-16v96H400z"/><rect x="160px" y="32px" width="32px" height="96px"/><path d="M372.944,360c6.992-6.018,11.026-14.775,11.056-24c0-17.673-14.327-32-32-32h-48v112h48     c17.598,0.078,31.927-14.125,32.005-31.722C384.046,374.957,380.005,366.085,372.944,360z M352,400h-32v-32h32     c8.837,0,16,7.163,16,16S360.837,400,352,400z M352,352h-32v-32h32c8.837,0,16,7.163,16,16S360.837,352,352,352z"/><path d="M183.501,388c10.004,17.327,28.491,28,48.499,28c30.913-0.035,55.965-25.087,56-56h-56v16h36.608     c-8.871,20.193-32.433,29.372-52.626,20.501c-20.193-8.871-29.372-32.433-20.501-52.626     c8.871-20.193,32.433-29.372,52.626-20.501c7.794,3.424,14.29,9.249,18.541,16.626l13.848-8     c-15.464-26.784-49.713-35.961-76.497-20.497C177.214,326.967,168.037,361.216,183.501,388z"/><rect x="176px" y="432px" width="208px" height="16px"/></g><g transform="matrix(0.18111109242920032 0.04852857095672264 -0.04852857095672264 0.18111109242920032 -31.819805153394643 -55.11351921262151)" id="L1_194"><path d="M472,188c4.418,0,8-3.582,8-8v-32c0-4.418-3.582-8-8-8H8c-4.418,0-8,3.582-8,8v32c0,4.418,3.582,8,8,8s8,3.582,8,8    s-3.582,8-8,8s-8,3.582-8,8v96c0,4.418,3.582,8,8,8h8v16c0,4.418,3.582,8,8,8h144c4.418,0,8-3.582,8-8v-16h16v16    c0,4.418,3.582,8,8,8h256c4.418,0,8-3.582,8-8v-16h8c4.418,0,8-3.582,8-8v-96c0-4.418-3.582-8-8-8s-8-3.582-8-8    S467.582,188,472,188z M160,324H32v-8h128V324z M448,324H208v-8h240V324z M464,173.368c-12.499,4.411-19.056,18.12-14.645,30.619    c2.416,6.845,7.8,12.229,14.645,14.645V300H16v-81.368c0.272-0.096,0.512-0.24,0.8-0.344c0.448-0.176,0.872-0.376,1.304-0.584    c0.886-0.414,1.746-0.882,2.576-1.4c0.392-0.24,0.8-0.48,1.16-0.744c0.945-0.671,1.84-1.409,2.68-2.208    c0.176-0.168,0.376-0.312,0.544-0.48c0.977-0.989,1.868-2.06,2.664-3.2c0.216-0.32,0.4-0.672,0.608-1    c0.549-0.871,1.04-1.777,1.472-2.712c0.2-0.44,0.376-0.88,0.552-1.336c0.363-0.939,0.663-1.901,0.896-2.88    c0.112-0.44,0.24-0.864,0.32-1.312c0.595-2.903,0.595-5.897,0-8.8c-0.08-0.448-0.208-0.872-0.32-1.312    c-0.233-0.979-0.533-1.941-0.896-2.88c-0.176-0.456-0.352-0.904-0.552-1.344c-0.434-0.931-0.925-1.834-1.472-2.704    c-0.208-0.328-0.392-0.68-0.608-1c-0.796-1.14-1.687-2.211-2.664-3.2c-0.168-0.168-0.368-0.312-0.544-0.48    c-0.84-0.799-1.735-1.537-2.68-2.208c-0.376-0.272-0.8-0.504-1.16-0.744c-0.83-0.518-1.69-0.986-2.576-1.4    c-0.432-0.2-0.856-0.408-1.304-0.584c-0.264-0.104-0.504-0.248-0.8-0.344V156h448V173.368z"/><path d="M264,172h-48c-4.418,0-8,3.582-8,8v80c0,4.418,3.582,8,8,8h48c4.418,0,8-3.582,8-8v-80C272,175.582,268.418,172,264,172z     M256,252h-32v-64h32V252z"/><path d="M344,172h-48c-4.418,0-8,3.582-8,8v80c0,4.418,3.582,8,8,8h48c4.418,0,8-3.582,8-8v-80C352,175.582,348.418,172,344,172z     M336,252h-32v-64h32V252z"/><path d="M104,172H56c-4.418,0-8,3.582-8,8v80c0,4.418,3.582,8,8,8h48c4.418,0,8-3.582,8-8v-80C112,175.582,108.418,172,104,172z     M96,252H64v-64h32V252z"/><path d="M184,172h-48c-4.418,0-8,3.582-8,8v80c0,4.418,3.582,8,8,8h48c4.418,0,8-3.582,8-8v-80C192,175.582,188.418,172,184,172z     M176,252h-32v-64h32V252z"/><path d="M424,172h-48c-4.418,0-8,3.582-8,8v80c0,4.418,3.582,8,8,8h48c4.418,0,8-3.582,8-8v-80C432,175.582,428.418,172,424,172z     M416,252h-32v-64h32V252z"/></g><g transform="matrix(0.1041666641831398 0 0 0.1041666641831398 62.5 237.5)" id="L1_195"><path d="M440,40H40C17.92,40.026,0.026,57.92,0,80v240c0.026,22.08,17.92,39.974,40,40h143.688    c-1.486,21.058-9.324,41.17-22.48,57.68L156.16,424H128c-4.418,0-8,3.582-8,8s3.582,8,8,8h224c4.418,0,8-3.582,8-8s-3.582-8-8-8    h-28.16l-5.048-6.32c-13.142-16.516-20.971-36.626-22.456-57.68H440c22.08-0.026,39.974-17.92,40-40V80    C479.974,57.92,462.08,40.026,440,40z M40,56h400c10.134,0.042,19.15,6.445,22.528,16H17.472C20.85,62.445,29.866,56.042,40,56z     M303.472,424H176.528c13.709-18.668,21.762-40.884,23.2-64h80.48C281.649,383.126,289.726,405.347,303.472,424z M464,320    c0,13.255-10.745,24-24,24H40c-13.255,0-24-10.745-24-24v-8h448V320z M464,296H16V88h448V296z"/><path d="M256,320h-32c-4.418,0-8,3.582-8,8s3.582,8,8,8h32c4.418,0,8-3.582,8-8S260.418,320,256,320z"/></g><g transform="matrix(0.0416666679084301 0 0 0.0416666679084301 77.5 340)" id="L1_196"><path d="M352,152c-48.601,0-88,39.399-88,88c0.057,48.577,39.423,87.943,88,88c48.601,0,88-39.399,88-88     C440,191.399,400.601,152,352,152z M366.856,171.816l-1.24-2.488c12.509,2.425,24.147,8.135,33.72,16.544l-3.8,11.352     c-2.723,8.169-9.613,14.253-18.056,15.944l-6.4,1.288c-1.889-1.441-3.934-2.664-6.096-3.648     C372.338,199.018,373.047,184.256,366.856,171.816z M347.2,168.248l5.336,10.72c3.853,7.704,3.282,16.881-1.496,24.048     l-3.632,5.448c-2.346,0.323-4.648,0.908-6.864,1.744c-3.138-13.546-13.076-24.496-26.256-28.928l-2.64-0.88     C322.204,173.254,334.478,169.059,347.2,168.248z M297.872,192.68l11.352,3.784c8.169,2.723,14.253,9.613,15.944,18.056     l1.288,6.4c-1.441,1.889-2.664,3.934-3.648,6.096c-11.794-7.342-26.549-8.051-38.992-1.872l-2.488,1.24     C283.752,213.88,289.463,202.246,297.872,192.68z M293.288,277.712l-0.88,2.64c-7.147-10.547-11.345-22.813-12.16-35.528     l10.72-5.36c7.704-3.853,16.881-3.282,24.048,1.496l5.448,3.632c0.323,2.346,0.908,4.648,1.744,6.864     C308.66,254.586,297.709,264.528,293.288,277.712z M337.152,308.184l1.24,2.488c-12.509-2.425-24.147-8.135-33.72-16.544     l3.792-11.352c2.723-8.169,9.613-14.253,18.056-15.944l6.408-1.288c1.889,1.441,3.934,2.664,6.096,3.648     C331.67,280.982,330.961,295.744,337.152,308.184z M336,240c0-8.837,7.163-16,16-16s16,7.163,16,16s-7.163,16-16,16     S336,248.837,336,240z M356.8,311.752l-5.336-10.72c-3.853-7.704-3.282-16.881,1.496-24.048l3.632-5.448     c2.346-0.323,4.648-0.908,6.864-1.744c3.138,13.546,13.076,24.496,26.256,28.928l2.64,0.88     C381.796,306.746,369.522,310.941,356.8,311.752z M406.13,287.318l-11.346-3.782c-8.169-2.723-14.253-9.613-15.944-18.056     l-1.288-6.4c1.443-1.892,2.669-3.939,3.656-6.104c11.773,7.397,26.554,8.11,38.984,1.88l2.488-1.24     C420.254,266.12,414.541,277.753,406.13,287.318z M413.032,240.536c-7.707,3.838-16.876,3.267-24.048-1.496l-5.448-3.632     c-0.323-2.346-0.908-4.648-1.744-6.864c13.548-3.13,24.499-13.072,28.92-26.256l0.88-2.64     c7.147,10.547,11.345,22.813,12.16,35.528L413.032,240.536z"/><path d="M160,152c-48.601,0-88,39.399-88,88c0.057,48.577,39.423,87.943,88,88c48.601,0,88-39.399,88-88     C248,191.399,208.601,152,160,152z M174.856,171.816l-1.24-2.488c12.509,2.425,24.147,8.135,33.72,16.544l-3.8,11.352     c-2.723,8.169-9.613,14.253-18.056,15.944l-6.4,1.288c-1.889-1.441-3.934-2.664-6.096-3.648     C180.338,199.018,181.047,184.256,174.856,171.816z M155.2,168.248l5.336,10.72c3.853,7.704,3.282,16.881-1.496,24.048     l-3.632,5.448c-2.346,0.323-4.648,0.908-6.864,1.744c-3.138-13.546-13.076-24.496-26.256-28.928l-2.64-0.88     C130.204,173.254,142.478,169.059,155.2,168.248z M105.872,192.68l11.352,3.784c8.169,2.723,14.253,9.613,15.944,18.056     l1.288,6.4c-1.441,1.889-2.664,3.934-3.648,6.096c-11.794-7.342-26.549-8.051-38.992-1.872l-2.488,1.24     C91.752,213.88,97.463,202.246,105.872,192.68z M101.288,277.712l-0.88,2.64c-7.147-10.547-11.345-22.813-12.16-35.528     l10.72-5.36c7.704-3.853,16.881-3.282,24.048,1.496l5.448,3.632c0.323,2.346,0.908,4.648,1.744,6.864     C116.66,254.586,105.709,264.528,101.288,277.712z M145.152,308.184l1.24,2.488c-12.509-2.425-24.147-8.135-33.72-16.544     l3.792-11.352c2.723-8.169,9.613-14.253,18.056-15.944l6.408-1.288c1.889,1.441,3.934,2.664,6.096,3.648     C139.67,280.982,138.961,295.744,145.152,308.184z M144,240c0-8.837,7.163-16,16-16s16,7.163,16,16s-7.163,16-16,16     S144,248.837,144,240z M164.8,311.752l-5.336-10.72c-3.853-7.704-3.282-16.881,1.496-24.048l3.632-5.448     c2.346-0.323,4.648-0.908,6.864-1.744c3.138,13.546,13.076,24.496,26.256,28.928l2.64,0.88     C189.796,306.746,177.522,310.941,164.8,311.752z M214.13,287.318l-11.346-3.782c-8.169-2.723-14.253-9.613-15.944-18.056     l-1.288-6.4c1.443-1.892,2.669-3.939,3.656-6.104c11.773,7.397,26.554,8.11,38.984,1.88l2.488-1.24     C228.254,266.12,222.541,277.753,214.13,287.318z M221.032,240.536c-7.707,3.838-16.876,3.267-24.048-1.496l-5.448-3.632     c-0.323-2.346-0.908-4.648-1.744-6.864c13.548-3.13,24.499-13.072,28.92-26.256l0.88-2.64     c7.147,10.547,11.345,22.813,12.16,35.528L221.032,240.536z"/><path d="M440,96H48V80c0-13.255-10.745-24-24-24H0v16h24c4.418,0,8,3.582,8,8v136H16v16h16v8H8v96h24v8H16v16h16v64h16v-40h32v32     h80v-32h16v32h176v-32h88c22.08-0.026,39.974-17.92,40-40V136C479.974,113.92,462.08,96.026,440,96z M32,320h-8v-64h8V320z      M112,400H96v-16h16V400z M144,400h-16v-16h16V400z M208,400h-16v-16h16V400z M240,400h-16v-16h16V400z M272,400h-16v-16h16V400z      M304,400h-16v-16h16V400z M336,400h-16v-16h16V400z M464,344c0,13.255-10.745,24-24,24H48v-48h28.688l32,32h101.976l32-24     h26.672l32,24h101.352l45.016-40H464V344z M464,296h-22.4l-45.016,40h-89.92l-32-24h-37.328l-32,24h-90.024l-32-32H48V176h35.312     l32-32h90.024l32,24h37.328l32-24h89.944l44.992,40H464V296z M464,168h-16.296l-45.016-40H301.336l-32,24h-26.672l-32-24H108.688     l-32,32H48v-48h392c13.255,0,24,10.745,24,24V168z"/></g><g transform="matrix(0.0833333358168602 0 0 0.0833333358168602 155 330)" id="L1_197"><path d="M376,272H248v-24c0-4.418,3.582-8,8-8h168c30.928,0,56-25.072,56-56c0-30.928-25.072-56-56-56H56    c-22.091,0-40-17.909-40-40s17.909-40,40-40h168c13.255,0,24-10.745,24-24V0h-16v24c0,4.418-3.582,8-8,8H56    C25.072,32,0,57.072,0,88c0,30.928,25.072,56,56,56h368c22.091,0,40,17.909,40,40s-17.909,40-40,40H256c-13.255,0-24,10.745-24,24    v24H104C46.562,272,0,318.562,0,376s46.562,104,104,104h272c57.438,0,104-46.562,104-104S433.438,272,376,272z M376,464H104    c-48.601,0-88-39.399-88-88c0-48.601,39.399-88,88-88h272c48.601,0,88,39.399,88,88C464,424.601,424.601,464,376,464z"/><path d="M376,320c-30.928,0-56,25.072-56,56c0,30.928,25.072,56,56,56c30.928,0,56-25.072,56-56    C431.96,345.089,406.911,320.04,376,320z M368,415.2c-15.698-3.236-27.964-15.502-31.2-31.2H368V415.2z M368,368h-31.2    c3.236-15.698,15.502-27.964,31.2-31.2V368z M384,415.2V384h31.2C411.964,399.698,399.698,411.964,384,415.2z M384,368v-31.2    c15.698,3.236,27.964,15.502,31.2,31.2H384z"/><path d="M280,368h-32c-4.418,0-8,3.582-8,8s3.582,8,8,8h32c4.418,0,8-3.582,8-8S284.418,368,280,368z"/><path d="M216,368h-32c-4.418,0-8,3.582-8,8s3.582,8,8,8h32c4.418,0,8-3.582,8-8S220.418,368,216,368z"/><circle cx="128" cy="376" r="16"/><circle cx="96" cy="344" r="16"/><circle cx="96" cy="408" r="16"/><circle cx="64" cy="376" r="16"/></g><g transform="matrix(0.0416666679084301 0 0 0.0416666679084301 252.5 340)" id="L1_198"><path d="M413.656,82.344l-80-80C332.156,0.844,330.122,0,328,0H104C81.92,0.026,64.026,17.92,64,40v400    c0.026,22.08,17.92,39.974,40,40h272c22.08-0.026,39.974-17.92,40-40V88C416,85.878,415.156,83.844,413.656,82.344z M400,440    c0,13.255-10.745,24-24,24H104c-13.255,0-24-10.745-24-24V40c0-13.255,10.745-24,24-24h220.688L400,91.312V440z"/><path d="M336,240H144c-4.418,0-8,3.582-8,8v160c0,4.418,3.582,8,8,8h192c4.418,0,8-3.582,8-8V248C344,243.582,340.418,240,336,240    z M248,256h32v32h-32V256z M200,256h32v32h-32V256z M152,256h32v32h-32V256z M184,400h-32v-32h32V400z M152,352v-48h40    c13.255,0,24,10.745,24,24s-10.745,24-24,24H152z M232,400h-32v-32h32V400z M280,400h-32v-32h32V400z M328,400h-32v-40    c0-4.418-3.582-8-8-8h-64.208c10.941-14.13,10.941-33.87,0-48H328V400z M328,288h-32v-32h32V288z"/></g><g transform="matrix(0.1875 0 0 0.1875 217.5 217.5)" id="L1_199"><path d="M136,200c-22.08,0.026-39.974,17.92-40,40c0.026,22.08,17.92,39.974,40,40h200v-80H136z M320,264H136    c-13.255,0-24-10.745-24-24s10.745-24,24-24h184V264z"/><path d="M384,184v-32H88c-48.601,0-88,39.399-88,88c0,48.601,39.399,88,88,88h296v-32h96V184H384z M368,312H88    c-39.765,0-72-32.236-72-72c0-39.765,32.235-72,72-72h280V312z M464,280h-80v-80h80V280z"/><rect x="416px" y="208px" width="32px" height="16px"/><rect x="416px" y="256px" width="32px" height="16px"/></g><g transform="matrix(0.0833333358168602 0 0 0.0833333358168602 67.5 67.5)" id="L1_200"><path d="M360,0H120C89.087,0.035,64.035,25.087,64,56v368c0.035,30.913,25.087,55.965,56,56h240c30.913-0.035,55.965-25.087,56-56    V56C415.965,25.087,390.913,0.035,360,0z M120,16h240c19.001,0.024,35.373,13.389,39.2,32H80.8    C84.627,29.389,100.999,16.024,120,16z M400,424c-0.026,22.08-17.92,39.974-40,40H120c-22.08-0.026-39.974-17.92-40-40v-24h320    V424z M400,384H80V64h320V384z"/><path d="M256,408h-32c-4.418,0-8,3.582-8,8v32c0,4.418,3.582,8,8,8h32c4.418,0,8-3.582,8-8v-32C264,411.582,260.418,408,256,408z     M248,440h-16v-16h16V440z"/></g><g transform="matrix(0.0833333358168602 0 0 0.0833333358168602 242.5 67.5)" id="L1_201"><path d="M136,136v208h208V136H136z M328,328H152V152h176V328z"/><path d="M480,104V88h-56V56h-32V0h-16v56h-32V0h-16v56h-32V0h-16v56h-32V0h-16v56h-32V0h-16v56h-32V0h-16v56h-32V0H88v56H56v32H0    v16h56v32H0v16h56v32H0v16h56v32H0v16h56v32H0v16h56v32H0v16h56v32H0v16h56v32h32v56h16v-56h32v56h16v-56h32v56h16v-56h32v56h16    v-56h32v56h16v-56h32v56h16v-56h32v56h16v-56h32v-32h56v-16h-56v-32h56v-16h-56v-32h56v-16h-56v-32h56v-16h-56v-32h56v-16h-56v-32    h56v-16h-56v-32H480z M408,408H72V72h336V408z"/><path d="M112,112v256h256V112H112z M352,352H128V128h224V352z"/><rect x="192px" y="256px" width="96px" height="16px"/><rect x="192px" y="208px" width="96px" height="16px"/></g></defs><g fi:class="KUsePattern"><pattern id="pattern_L1_192" width="350" height="350" patternUnits="userSpaceOnUse"><use xlink:href="#L1_192" x="-350" y="-350"/><use xlink:href="#L1_192" x="0" y="-350"/><use xlink:href="#L1_192" x="350" y="-350"/><use xlink:href="#L1_192" x="-350" y="0"/><use xlink:href="#L1_192" x="0" y="0"/><use xlink:href="#L1_192" x="350" y="0"/><use xlink:href="#L1_192" x="-350" y="350"/><use xlink:href="#L1_192" x="0" y="350"/><use xlink:href="#L1_192" x="350" y="350"/></pattern><rect x="0" y="0" width="100%" height="100%" fill="url(#pattern_L1_192)"/></g><g fi:class="KUsePattern"><pattern id="pattern_L1_193" width="350" height="350" patternUnits="userSpaceOnUse"><use xlink:href="#L1_193" x="-350" y="-350"/><use xlink:href="#L1_193" x="0" y="-350"/><use xlink:href="#L1_193" x="350" y="-350"/><use xlink:href="#L1_193" x="-350" y="0"/><use xlink:href="#L1_193" x="0" y="0"/><use xlink:href="#L1_193" x="350" y="0"/><use xlink:href="#L1_193" x="-350" y="350"/><use xlink:href="#L1_193" x="0" y="350"/><use xlink:href="#L1_193" x="350" y="350"/></pattern><rect x="0" y="0" width="100%" height="100%" fill="url(#pattern_L1_193)"/></g><g fi:class="KUsePattern"><pattern id="pattern_L1_194" width="350" height="350" patternUnits="userSpaceOnUse"><use xlink:href="#L1_194" x="-350" y="-350"/><use xlink:href="#L1_194" x="0" y="-350"/><use xlink:href="#L1_194" x="350" y="-350"/><use xlink:href="#L1_194" x="-350" y="0"/><use xlink:href="#L1_194" x="0" y="0"/><use xlink:href="#L1_194" x="350" y="0"/><use xlink:href="#L1_194" x="-350" y="350"/><use xlink:href="#L1_194" x="0" y="350"/><use xlink:href="#L1_194" x="350" y="350"/></pattern><rect x="0" y="0" width="100%" height="100%" fill="url(#pattern_L1_194)"/></g><g fi:class="KUsePattern"><pattern id="pattern_L1_195" width="350" height="350" patternUnits="userSpaceOnUse"><use xlink:href="#L1_195" x="-350" y="-350"/><use xlink:href="#L1_195" x="0" y="-350"/><use xlink:href="#L1_195" x="350" y="-350"/><use xlink:href="#L1_195" x="-350" y="0"/><use xlink:href="#L1_195" x="0" y="0"/><use xlink:href="#L1_195" x="350" y="0"/><use xlink:href="#L1_195" x="-350" y="350"/><use xlink:href="#L1_195" x="0" y="350"/><use xlink:href="#L1_195" x="350" y="350"/></pattern><rect x="0" y="0" width="100%" height="100%" fill="url(#pattern_L1_195)"/></g><g fi:class="KUsePattern"><pattern id="pattern_L1_196" width="350" height="350" patternUnits="userSpaceOnUse"><use xlink:href="#L1_196" x="-350" y="-350"/><use xlink:href="#L1_196" x="0" y="-350"/><use xlink:href="#L1_196" x="350" y="-350"/><use xlink:href="#L1_196" x="-350" y="0"/><use xlink:href="#L1_196" x="0" y="0"/><use xlink:href="#L1_196" x="350" y="0"/><use xlink:href="#L1_196" x="-350" y="350"/><use xlink:href="#L1_196" x="0" y="350"/><use xlink:href="#L1_196" x="350" y="350"/></pattern><rect x="0" y="0" width="100%" height="100%" fill="url(#pattern_L1_196)"/></g><g fi:class="KUsePattern"><pattern id="pattern_L1_197" width="350" height="350" patternUnits="userSpaceOnUse"><use xlink:href="#L1_197" x="-350" y="-350"/><use xlink:href="#L1_197" x="0" y="-350"/><use xlink:href="#L1_197" x="350" y="-350"/><use xlink:href="#L1_197" x="-350" y="0"/><use xlink:href="#L1_197" x="0" y="0"/><use xlink:href="#L1_197" x="350" y="0"/><use xlink:href="#L1_197" x="-350" y="350"/><use xlink:href="#L1_197" x="0" y="350"/><use xlink:href="#L1_197" x="350" y="350"/></pattern><rect x="0" y="0" width="100%" height="100%" fill="url(#pattern_L1_197)"/></g><g fi:class="KUsePattern"><pattern id="pattern_L1_198" width="350" height="350" patternUnits="userSpaceOnUse"><use xlink:href="#L1_198" x="-350" y="-350"/><use xlink:href="#L1_198" x="0" y="-350"/><use xlink:href="#L1_198" x="350" y="-350"/><use xlink:href="#L1_198" x="-350" y="0"/><use xlink:href="#L1_198" x="0" y="0"/><use xlink:href="#L1_198" x="350" y="0"/><use xlink:href="#L1_198" x="-350" y="350"/><use xlink:href="#L1_198" x="0" y="350"/><use xlink:href="#L1_198" x="350" y="350"/></pattern><rect x="0" y="0" width="100%" height="100%" fill="url(#pattern_L1_198)"/></g><g fi:class="KUsePattern"><pattern id="pattern_L1_199" width="350" height="350" patternUnits="userSpaceOnUse"><use xlink:href="#L1_199" x="-350" y="-350"/><use xlink:href="#L1_199" x="0" y="-350"/><use xlink:href="#L1_199" x="350" y="-350"/><use xlink:href="#L1_199" x="-350" y="0"/><use xlink:href="#L1_199" x="0" y="0"/><use xlink:href="#L1_199" x="350" y="0"/><use xlink:href="#L1_199" x="-350" y="350"/><use xlink:href="#L1_199" x="0" y="350"/><use xlink:href="#L1_199" x="350" y="350"/></pattern><rect x="0" y="0" width="100%" height="100%" fill="url(#pattern_L1_199)"/></g><g fi:class="KUsePattern"><pattern id="pattern_L1_200" width="350" height="350" patternUnits="userSpaceOnUse"><use xlink:href="#L1_200" x="-350" y="-350"/><use xlink:href="#L1_200" x="0" y="-350"/><use xlink:href="#L1_200" x="350" y="-350"/><use xlink:href="#L1_200" x="-350" y="0"/><use xlink:href="#L1_200" x="0" y="0"/><use xlink:href="#L1_200" x="350" y="0"/><use xlink:href="#L1_200" x="-350" y="350"/><use xlink:href="#L1_200" x="0" y="350"/><use xlink:href="#L1_200" x="350" y="350"/></pattern><rect x="0" y="0" width="100%" height="100%" fill="url(#pattern_L1_200)"/></g><g fi:class="KUsePattern"><pattern id="pattern_L1_201" width="350" height="350" patternUnits="userSpaceOnUse"><use xlink:href="#L1_201" x="-350" y="-350"/><use xlink:href="#L1_201" x="0" y="-350"/><use xlink:href="#L1_201" x="350" y="-350"/><use xlink:href="#L1_201" x="-350" y="0"/><use xlink:href="#L1_201" x="0" y="0"/><use xlink:href="#L1_201" x="350" y="0"/><use xlink:href="#L1_201" x="-350" y="350"/><use xlink:href="#L1_201" x="0" y="350"/><use xlink:href="#L1_201" x="350" y="350"/></pattern><rect x="0" y="0" width="100%" height="100%" fill="url(#pattern_L1_201)"/></g></svg>