<svg width="174" height="43" viewBox="0 0 174 43" fill="none" xmlns="http://www.w3.org/2000/svg">
<path d="M6.2924 33.1085C3.53025 32.9219 0.133545 30.4583 0.133545 25.6806V0H6.70299V25.1953C6.70299 27.1363 7.89744 28.1814 9.24119 28.48L6.2924 33.1085Z" fill="white"/>
<path d="M21.7082 32.8472C15.512 32.8472 10.5476 28.3681 10.5476 21.9852C10.5476 15.5651 15.512 11.0859 21.7082 11.0859C27.8671 11.0859 32.8315 15.5651 32.8315 21.9852C32.8315 28.3681 27.8671 32.8472 21.7082 32.8472ZM21.7082 16.6849C19.1327 16.6849 16.9678 18.8872 16.9678 21.9852C16.9678 25.0087 19.1327 27.1736 21.7082 27.1736C24.2464 27.1736 26.4487 25.0087 26.4487 21.9852C26.4487 18.8872 24.2464 16.6849 21.7082 16.6849Z" fill="white"/>
<path d="M43.992 43C38.0198 43 34.0259 39.566 34.0259 35.2361C34.0259 32.2873 35.7429 30.1597 38.0198 29.4505L35.6682 27.0989C35.8549 25.7552 36.9747 24.5981 38.0198 24.0382C36.4894 22.9557 35.183 21.0521 35.183 18.7005C35.183 14.2587 38.3184 11.0486 43.5814 11.0486C44.8132 11.0486 45.709 11.2352 46.6049 11.4592C47.5007 11.6831 48.4712 11.8324 49.5537 11.8324C51.0094 11.8324 52.2038 11.4965 53.137 11.0486L53.5849 16.237C53.2863 16.4982 52.3158 16.7222 51.6066 16.6849C51.8306 17.0955 51.9799 17.73 51.9799 18.4392C51.9799 22.3585 49.1804 25.2699 45.2238 25.6432C44.3653 25.6805 43.7681 25.9045 43.7681 26.4644C43.7681 26.6883 43.9174 26.9496 44.328 27.0989L47.6127 28.2187C51.6066 29.5625 53.8089 31.8021 53.8089 35.6094C53.8089 39.8646 49.9269 43 43.992 43ZM45.5971 33.1458L42.8722 32.362C41.1179 32.4366 39.8115 33.6311 39.8115 35.3107C39.8115 36.8411 41.2299 38.2222 43.88 38.2222C46.4556 38.2222 47.874 36.9904 47.874 35.684C47.8366 34.6015 47.0155 33.5564 45.5971 33.1458ZM43.5814 15.6771C41.9391 15.6771 40.67 16.9088 40.67 18.4019C40.67 19.8949 41.9391 21.1267 43.5814 21.1267C45.1491 21.1267 46.4929 19.8949 46.4929 18.4019C46.4929 16.9088 45.2611 15.6771 43.5814 15.6771Z" fill="white"/>
<path d="M72.5094 18.29C70.979 17.3941 69.3366 16.9835 67.433 16.9835C64.3722 16.9835 61.9087 18.8872 61.9087 22.0226C61.9087 25.158 64.5962 27.099 67.7316 27.099C69.5233 27.099 71.091 26.7257 72.808 25.8299L72.2481 31.7648C70.9417 32.4367 68.8887 32.8846 66.5372 32.8846C60.5649 32.8846 55.1899 28.7414 55.1899 22.0226C55.1899 15.2292 60.5649 11.1233 66.4998 11.1233C69.2247 11.1233 71.3896 11.6832 72.9946 12.579L72.5094 18.29Z" fill="white"/>
<path d="M124.916 32.2128V19.5964C124.916 18.1407 123.796 17.2075 121.967 17.2075C120.101 17.2075 118.794 18.2154 118.794 19.7084V32.2501H112.15V19.5964C112.15 18.1407 111.03 17.2075 109.127 17.2075C107.335 17.2075 105.991 18.2154 105.991 19.7084V32.2501H99.3472V11.7206H105.17L105.357 13.7735C106.402 12.3551 108.417 11.198 111.329 11.198C114.091 11.198 116.032 12.3924 117.152 13.8108C118.384 12.3551 120.996 11.198 123.983 11.198C128.76 11.198 131.523 14.1468 131.523 18.2527V32.2128H124.916Z" fill="white"/>
<path d="M153.433 21.2761L150.783 23.8889H140.556C141.041 25.6806 142.944 27.7709 146.565 27.7709C148.917 27.7709 150.746 27.211 152.5 26.2032L151.903 31.6902C150.484 32.362 148.506 32.8846 145.781 32.8846C139.1 32.8846 133.799 28.5921 133.799 21.9106C133.799 15.2665 138.727 11.1606 144.475 11.1606C150.186 11.1606 153.657 15.0799 153.657 19.2978C153.657 19.895 153.545 20.6789 153.433 21.2761ZM144.475 16.0877C142.496 16.0877 140.779 17.5435 140.294 19.6337H147.536C147.573 19.4844 147.573 19.3725 147.573 19.1858C147.573 17.5435 146.378 16.0877 144.475 16.0877Z" fill="white"/>
<path d="M167.356 32.2127L165.042 28.2934C164.743 27.6962 164.37 26.9496 164.108 26.2404H164.034C163.773 26.9123 163.325 27.6962 162.989 28.2934L160.712 32.2127H154.516L160.562 21.9852L154.74 11.7205H161.346L163.474 15.3411C163.773 15.9383 164.108 16.4609 164.37 17.1328H164.444C164.743 16.4982 165.079 15.9383 165.452 15.3411L167.542 11.7205H173.739L167.953 21.5746L174 32.2127H167.356Z" fill="white"/>
<path d="M86.2456 32.7353C80.124 32.7353 75.197 28.2935 75.197 21.9853C75.197 15.6398 80.124 11.198 86.2456 11.198C92.3298 11.198 97.2569 15.6398 97.2569 21.9853C97.2569 28.2935 92.3298 32.7353 86.2456 32.7353ZM90.6874 15.3039L77.9591 21.2388C77.3992 21.5001 77.5112 22.3213 78.1084 22.3959L84.6405 23.4784C84.7152 23.4784 84.7899 23.553 84.8272 23.6277L87.44 30.0105C87.6267 30.4958 88.3359 30.4211 88.4478 29.9359L91.5086 15.9758C91.6206 15.4905 91.1353 15.1173 90.6874 15.3039Z" fill="#F18C28"/>
</svg>
